<svg width="96" height="60" viewBox="0 0 96 60" fill="none" xmlns="http://www.w3.org/2000/svg">
<path d="M58.838 38.1722C59.2818 37.6727 59.5018 37.1732 59.7297 36.6867C60.6355 34.7545 61.5204 32.8121 62.4194 30.8771C62.801 30.0552 63.2063 29.2441 63.5855 28.421C63.7476 28.0685 63.9766 27.8608 64.3735 27.7756C65.59 27.5145 66.798 27.2159 68.0099 26.9338C68.1199 26.9083 68.2333 26.8845 68.3449 26.8845C68.8285 26.8827 69.1023 27.2375 68.9866 27.712C68.9243 27.968 68.8472 28.2206 68.7831 28.4761C68.7758 28.5061 68.8041 28.5459 68.8166 28.5811C69.4611 28.7037 69.7224 28.589 70.0076 28.0481C70.2457 27.5968 70.49 27.1478 70.7094 26.6875C70.8601 26.3713 71.0926 26.1783 71.4242 26.0983C72.6702 25.7963 73.9161 25.496 75.1633 25.198C75.2727 25.1719 75.3877 25.1566 75.4994 25.1577C75.9699 25.1617 76.2273 25.4977 76.1065 25.9501C76.0629 26.1142 75.9988 26.2726 75.9467 26.4343C75.8962 26.591 75.8486 26.7488 75.7692 27.0025C76.2307 26.9804 76.6184 26.9616 77.1025 26.9389C77.1841 26.7834 77.3106 26.5575 77.4239 26.3253C77.713 25.731 77.9987 25.1356 78.2816 24.5379C78.3831 24.3233 78.5248 24.1718 78.7595 24.09C80.006 23.6552 81.2435 23.1943 82.4951 22.7749C83.0603 22.5853 83.4004 22.8901 83.363 23.4861C83.3449 23.7688 83.3233 24.0509 83.3075 24.3336C83.3058 24.3682 83.3301 24.4039 83.3568 24.4806C83.5093 24.5169 83.6839 24.5589 83.8834 24.6066C84.0076 25.08 83.8573 25.5432 83.7842 25.9978C83.469 27.9573 83.1181 29.9104 82.7905 31.8676C82.6125 32.9296 82.473 33.9985 82.2837 35.0582C81.9005 37.2027 80.9039 39.0134 79.2164 40.3979C78.1818 41.2464 77.005 41.8385 75.6576 42.0383C74.9977 42.1359 74.3878 41.9895 73.7841 41.7369C73.3345 41.549 72.8782 41.3554 72.4054 41.2561C72.1577 41.2044 71.8221 41.2794 71.6078 41.4213C70.9962 41.826 70.4174 42.2824 69.846 42.7444C69.6771 42.8806 69.5501 43.0895 69.4503 43.2882C68.7956 44.5875 68.1658 45.8987 67.5043 47.194C66.6971 48.7737 65.658 50.1865 64.3009 51.3348C63.3089 52.1743 62.1961 52.8129 60.8719 52.9582C60.5233 52.9962 60.1508 52.9849 59.8107 52.9043C59.2642 52.7754 58.7388 52.5603 58.1997 52.3991C57.2881 52.1266 56.6079 51.1112 56.6255 50.1473C56.6465 48.9769 57.1266 47.9881 57.6436 47.001C57.808 46.6871 58.0557 46.4169 58.2615 46.1246C58.3986 45.9293 58.529 45.729 58.6849 45.4979C58.3641 45.3651 58.1889 45.5445 58.016 45.6523C57.3941 46.0406 56.8006 46.4777 56.1646 46.8398C55.3098 47.3268 54.3784 47.6118 53.3954 47.3688C52.6682 47.1895 51.955 46.9238 51.2657 46.6275C50.5554 46.3221 50.2981 45.654 50.1609 44.9462C50.0968 44.6153 50.0832 44.2747 50.0464 43.933C49.7987 43.9182 49.7493 44.1022 49.683 44.2446C49.0141 45.6813 48.3565 47.123 47.6774 48.5546C47.5964 48.7249 47.428 48.894 47.2585 48.9735C46.9014 49.1404 46.5239 49.28 46.1406 49.3714C45.389 49.5496 44.6288 49.6898 43.8709 49.8386C43.6532 49.8811 43.4537 49.8624 43.38 49.5916C43.3171 49.36 43.1277 49.2999 42.9339 49.3561C42.4843 49.4861 42.0133 49.5894 41.6063 49.8073C40.8262 50.2251 40.104 50.753 39.3223 51.1668C38.1047 51.811 36.8128 52.3208 35.4166 51.9495C34.4076 51.6811 33.3662 51.4353 32.4757 50.8279C32.3039 50.711 32.135 50.5901 31.9576 50.4817C31.6038 50.266 31.4457 50.2847 31.1804 50.6071C30.8799 50.9715 30.5993 51.3518 30.3097 51.7248C29.6011 52.6369 28.8539 53.5167 27.9339 54.2217C27.2724 54.7292 26.5513 55.1419 25.7038 55.2735C25.0678 55.3723 24.4664 55.3014 23.9018 54.9687C23.7425 54.8751 23.5594 54.7911 23.3791 54.7678C21.7681 54.5566 20.9603 53.4753 20.5363 52.0546C20.2534 51.1066 20.339 50.1269 20.7845 49.2323C21.441 47.9149 22.1558 46.6264 22.8332 45.3191C23.4415 44.1459 24.0276 42.9618 24.6342 41.788C24.8757 41.3197 25.1511 40.8695 25.4017 40.4058C25.6619 39.9239 25.9079 39.434 26.163 38.9498C26.3818 38.5349 26.6534 38.2449 27.1737 38.1478C27.8443 38.0229 28.4889 37.7578 29.2406 37.5234C28.7066 37.0358 28.1669 36.7026 27.9379 36.0868C27.7213 35.5061 27.8018 34.9106 27.8563 34.2284C27.6499 34.3152 27.5167 34.3351 27.4339 34.4111C26.3365 35.4204 25.2214 36.412 24.1608 37.4587C22.8723 38.7307 21.6173 40.0374 20.3747 41.3543C19.195 42.6042 18.1157 43.9427 17.1379 45.3572C16.2473 46.6457 15.3488 47.9325 14.532 49.2675C12.9646 51.8281 11.4476 54.4198 9.92162 57.0054C9.56676 57.6065 9.26632 58.2399 8.92903 58.8518C8.81169 59.0653 8.67224 59.2696 8.51975 59.4598C8.1065 59.9752 7.59178 60.125 6.95632 59.898C6.28118 59.6567 5.58053 59.4825 4.91559 59.2185C2.71217 58.3432 1.02176 56.9321 0.270657 54.5907C0.161818 54.2507 0.067718 53.8954 0.0410751 53.5412C-0.0859038 51.8655 0.0926602 50.233 0.628919 48.6244C1.71221 45.3753 3.28867 42.3698 5.04144 39.4493C5.87643 38.0575 6.77266 36.7026 7.6479 35.3358C8.22724 34.4299 8.82359 33.5353 9.4001 32.6277C9.51291 32.4506 9.75156 32.2581 9.56166 32.0254C9.37516 31.7967 9.10646 31.6973 8.79695 31.7921C8.18416 31.9806 7.56401 32.1469 6.95916 32.3575C6.39059 32.555 5.83789 32.7974 5.2285 33.0398C5.16615 32.8144 5.10946 32.6089 5.03123 32.3246C4.80448 32.3961 4.59644 32.4472 4.40087 32.5278C4.28126 32.5771 4.18263 32.6753 4.07095 32.7463C3.8187 32.9064 3.56361 32.8871 3.32665 32.7236C3.07383 32.5493 2.93098 32.3018 3.01601 31.9919C3.10047 31.6837 3.19231 31.3681 3.34083 31.0877C4.36629 29.1572 5.94049 27.8977 8.0209 27.2352C9.79861 26.6693 11.6183 26.3929 13.4742 26.348C14.0462 26.3344 14.5444 26.1806 15.0132 25.8695C16.0733 25.1657 17.2167 24.6372 18.4303 24.2592C19.3725 23.9652 20.3271 23.7324 21.3219 23.8289C22.0198 23.8965 22.7198 24.0253 23.2074 24.5992C23.3956 24.8206 23.4999 25.114 23.637 25.3774C23.7215 25.5398 23.7549 25.7543 23.8814 25.8644C24.7288 26.604 24.4284 27.5645 23.8536 28.2927C23.3661 28.9109 22.7028 29.3156 22.0039 29.6658C20.555 30.3924 19.0006 30.7732 17.4253 31.0883C17.3142 31.1104 17.1997 31.1433 17.0897 31.1342C16.2348 31.0633 15.7309 31.5713 15.3029 32.2071C14.8386 32.8961 14.337 33.5637 13.9232 34.2817C13.2066 35.5237 12.5088 36.7798 11.8683 38.0621C10.887 40.0255 10.1478 42.0911 9.48683 44.1816C9.05317 45.5519 8.71759 46.9488 8.53846 48.3786C8.52202 48.5097 8.50671 48.6414 8.50161 48.7731C8.49934 48.8259 8.52712 48.8798 8.54753 48.9559C8.79638 48.9326 8.88538 48.7402 8.99592 48.5722C9.64045 47.5942 10.26 46.5991 10.9369 45.6444C12.1154 43.9824 13.3211 42.3397 14.5308 40.6998C15.3925 39.5317 16.2672 38.3726 17.1594 37.2277C17.6106 36.6487 18.1118 36.1078 18.5959 35.5543C19.9745 33.9769 21.3265 32.3751 22.7454 30.8345C24.1132 29.3496 25.5332 27.9107 26.964 26.486C28.3681 25.0879 29.7932 23.7097 31.2484 22.3656C33.0391 20.711 34.9858 19.2624 37.0764 17.9972C39.7004 16.4078 42.4293 15.0472 45.3278 14.0465C46.983 13.4749 48.6621 12.9737 50.3689 12.5622C52.0939 12.1461 53.828 11.78 55.5802 11.5206C57.3341 11.2606 59.0953 11.0387 60.8594 10.8616C63.6943 10.5772 66.5389 10.3859 69.371 10.0749C71.9774 9.78879 74.572 9.39599 77.1722 9.05145C79.5695 8.73358 81.9254 8.20853 84.2604 7.59436C86.3646 7.04093 88.4036 6.30188 90.2817 5.18083C92.0384 4.13243 93.1897 2.63333 93.5752 0.589324C93.6642 0.11763 93.7288 0.0574616 94.1302 0.0160251C94.6233 -0.0350609 94.7741 0.0245395 94.9294 0.445148C95.1103 0.935574 95.2463 1.44303 95.4118 1.97659C95.71 2.03847 95.718 2.03563 95.8053 2.32398C96.0893 3.25942 96.0586 4.20281 95.7474 5.11498C95.2956 6.43641 94.4567 7.47629 93.3269 8.30218C91.7261 9.47262 89.9818 10.3468 88.1106 10.9853C87.3991 11.2283 86.7183 11.5762 85.995 11.7641C84.3715 12.1859 82.7304 12.5406 81.095 12.917C79.5882 13.2638 78.0809 13.6078 76.5714 13.9438C75.9285 14.0868 75.2812 14.2111 74.6344 14.3354C73.6905 14.5165 72.741 14.6692 71.8017 14.8707C70.6033 15.1278 69.4101 15.4105 68.2191 15.7017C66.2957 16.1723 64.3774 16.6655 62.454 17.135C61.5561 17.3541 60.6451 17.5187 59.7495 17.7463C58.745 18.0012 57.7507 18.298 56.7525 18.5796C56.2077 18.7334 55.6629 18.8866 55.1221 19.0541C54.5093 19.2437 53.8977 19.4367 53.2928 19.6495C51.8904 20.1428 50.4908 20.6434 49.094 21.152C47.7659 21.6356 46.428 22.0971 45.122 22.6352C43.8505 23.1586 42.6249 23.7926 41.3591 24.3301C39.9102 24.946 38.6132 25.8292 37.2623 26.6143C36.2556 27.1995 35.3287 27.9232 34.3758 28.5992C33.839 28.9801 33.2886 29.3519 32.8022 29.7918C31.9644 30.549 30.9848 31.1439 30.2558 32.0237C30.2212 32.0657 30.1946 32.1151 30.1073 32.2462C30.3839 32.1639 30.5801 32.0805 30.7841 32.0498C31.635 31.9221 32.4791 31.9283 33.2937 32.2564C33.8475 32.4789 34.2375 32.8536 34.4461 33.4291C34.5334 33.6698 34.6791 33.9014 34.8435 34.1001C35.4551 34.8408 35.505 35.7155 34.9365 36.4988C34.4813 37.1261 33.8741 37.5552 33.1627 37.8617C32.8974 37.9758 32.6384 38.1688 32.4541 38.3907C32.1826 38.7183 32.296 38.922 32.7223 38.9799C32.813 38.9924 32.9042 39.0049 33.0097 39.0191C33.1593 39.3943 32.9621 39.6832 32.8164 39.9806C32.1684 41.3015 31.5188 42.6212 30.872 43.9421C30.8578 43.971 30.8703 44.013 30.8703 44.1413C31.1872 43.8757 31.3414 43.5658 31.5296 43.2859C32.1395 42.3777 32.7177 41.4463 33.3645 40.5653C34.0652 39.6106 34.7959 38.6723 35.5765 37.7828C36.0946 37.1931 36.7363 36.7134 37.3014 36.1628C37.9573 35.5237 38.7368 35.0662 39.51 34.599C40.4736 34.0166 41.5195 33.6363 42.6272 33.4547C43.5484 33.3037 44.4066 33.5319 45.1169 34.1341C45.4219 34.3924 45.6537 34.7608 45.8504 35.1173C46.0993 35.5685 46.3595 35.9653 46.7942 36.303C46.8969 36.1549 47.0221 36.0215 47.0936 35.8631C48.0618 33.7095 49.0158 31.5497 49.9869 29.3979C50.4687 28.3302 50.98 27.2761 51.4709 26.2118C51.6512 25.8213 51.8802 25.5653 52.3365 25.4137C53.6058 24.9926 54.8432 24.4772 56.0938 23.9992C56.2168 23.9521 56.3375 23.8891 56.4656 23.867C56.8738 23.7949 57.2218 24.0844 57.2071 24.501C57.1997 24.7042 57.126 24.9051 57.0795 25.1061C57.0302 25.3178 56.9769 25.5284 56.9146 25.7838C57.2598 25.7838 57.5285 25.7838 57.8845 25.7838C57.753 26.1868 57.6634 26.5496 57.5183 26.8884C57.0801 27.9136 56.6153 28.9268 56.1737 29.9502C56.0739 30.1812 56.0269 30.4344 55.9197 30.7976C56.164 30.7 56.2899 30.6756 56.3834 30.6075C56.6425 30.4185 56.9163 30.2374 57.1323 30.0047C57.5376 29.567 58.0353 29.3491 58.6021 29.2225C59.2637 29.0749 59.9161 28.891 60.5749 28.7298C60.72 28.694 60.8747 28.6674 61.0227 28.6764C61.5538 28.7099 61.8033 29.1334 61.534 29.592C61.3475 29.9093 61.0839 30.1806 60.8095 30.5309C61.2364 30.5309 61.6145 30.5309 62.0051 30.5309C62.0595 30.8499 61.8497 30.9867 61.6933 31.1229C60.7126 31.976 59.72 32.8167 58.7337 33.663C58.4616 33.8963 58.1895 34.1302 57.9304 34.3776C57.8397 34.4645 57.7241 34.5945 57.728 34.7001C57.7467 35.1706 57.7416 35.694 58.1135 36.0226C58.4916 36.3569 58.614 36.7594 58.6906 37.2101C58.7359 37.4871 58.7756 37.7658 58.838 38.1722ZM46.1826 45.5973C46.3147 45.5893 46.4473 45.5876 46.5783 45.5723C47.0193 45.5206 47.1395 45.3674 47.14 44.8543C46.7676 44.7175 46.3476 45.1222 45.9337 44.7589C46.4054 44.2969 47.1151 44.4745 47.6202 44.0482C47.1916 43.891 46.8027 44.3127 46.402 43.9886C46.7557 43.4466 47.5436 43.7491 47.8968 43.1991C47.5499 43.0089 47.1474 43.3359 46.7982 42.9482C47.0408 42.8471 47.2313 42.7461 47.4337 42.6888C47.6497 42.628 47.8781 42.6138 48.0986 42.5667C48.1372 42.5588 48.1632 42.4901 48.2012 42.4424C48.0419 42.38 47.8968 42.3232 47.6156 42.2131C47.8588 42.078 47.9858 41.9906 48.1253 41.9355C48.2653 41.8805 48.4586 41.9248 48.5379 41.6529C48.3611 41.6818 48.2375 41.7091 48.1128 41.7204C47.949 41.7352 47.7324 41.7965 47.7018 41.5643C47.6916 41.4865 47.8724 41.3452 47.992 41.297C48.1995 41.2124 48.4285 41.1834 48.6451 41.1187C48.7284 41.0938 48.8015 41.0342 48.9586 40.945C48.4523 40.9439 48.4523 40.9439 48.1746 40.773C48.39 40.4171 48.9013 40.6419 49.1218 40.3036C49.0033 40.2395 48.899 40.1833 48.7414 40.0976C48.8877 39.9772 48.9778 39.8404 49.0827 39.828C49.395 39.7911 49.5679 39.5862 49.7771 39.3903C50.1892 39.0038 50.6149 38.6223 51.0792 38.3028C51.4307 38.0609 51.8349 37.8691 52.243 37.7448C52.6534 37.6193 52.9023 37.8345 52.9272 38.2619C52.9403 38.4844 52.9244 38.7228 52.8586 38.934C52.6835 39.4914 52.4868 40.0431 52.2747 40.588C51.8989 41.5552 51.4658 42.5026 51.137 43.4851C50.9863 43.9364 50.997 44.4507 50.9863 44.9377C50.9749 45.4537 51.2963 45.7897 51.747 45.9606C52.0214 46.0644 52.3411 46.1274 52.6296 46.0991C53.7758 45.9844 54.8659 45.6495 55.7485 44.8889C56.4889 44.2509 57.1459 43.5158 57.842 42.8261C57.9502 42.7189 58.0704 42.6229 58.2637 42.4526C58.3113 42.7177 58.3578 42.8591 58.359 43.0004C58.3692 44.1583 59.2949 44.5489 60.1287 44.3479C60.6021 44.2338 61.0709 44.0715 61.5153 43.8723C62.386 43.4829 63.1456 42.9272 63.7879 42.2142C63.9143 42.0735 64.0288 41.872 64.3581 41.9446C64.0997 42.5582 63.9636 43.1906 63.2902 43.4795C63.0827 43.5686 62.8843 43.6815 62.6893 43.7968C61.4053 44.554 60.1049 45.2891 59.0738 46.3999C58.1883 47.3546 57.6277 48.4757 57.4078 49.754C57.2077 50.9187 57.9191 51.7191 59.101 51.693C59.9309 51.6748 60.6899 51.3938 61.4127 51.005C61.6445 50.8801 61.9625 50.7882 62.0697 50.5889C62.2528 50.2467 62.5362 50.1309 62.8491 50.0287C62.742 49.5547 62.7647 49.5156 63.2182 49.4242C63.3763 49.3924 63.5543 49.4106 63.6297 49.2125C63.4608 49.1517 63.314 49.0984 63.1241 49.0297C63.4103 48.6261 63.8621 48.6829 64.2125 48.491C64.0084 48.4303 63.848 48.3832 63.6875 48.3355C63.6864 48.2855 63.6858 48.2362 63.6853 48.1862C64.0543 48.0619 64.4233 47.9382 64.7924 47.8138C64.692 47.6827 64.6059 47.6714 64.5271 47.6401C64.4505 47.6101 64.382 47.5601 64.2776 47.5011C64.4715 47.2973 64.7277 47.2684 64.844 47.0038C64.9086 46.8574 65.2736 46.8443 65.5463 46.7569C65.2691 46.4981 64.8853 46.9528 64.6609 46.5605C64.9568 46.187 65.4715 46.325 65.8377 46.0395C65.4822 45.9259 65.1257 46.3199 64.7731 45.9515C64.9029 45.8658 64.9959 45.7744 65.1064 45.738C65.357 45.6563 65.6177 45.6075 65.8717 45.5354C66.3042 45.4128 66.4199 45.2243 66.4204 44.7623C66.421 44.6164 66.51 44.4711 66.5633 44.3122C66.4913 44.2503 66.3887 44.1623 66.218 44.0153C66.4879 43.8989 66.6846 43.8138 66.8915 43.7247C66.7464 43.6532 66.6092 43.585 66.468 43.5152C66.565 43.2155 66.798 43.2462 66.9907 43.2093C67.4351 43.1241 67.5236 42.9976 67.4884 42.4788C67.1806 42.3896 66.8552 42.7824 66.5293 42.4543C66.7923 41.9883 67.3563 42.1961 67.7877 41.8504C67.383 41.8828 67.1024 41.9049 66.8223 41.9276C66.8541 41.742 66.9125 41.6205 66.9964 41.5989C67.3592 41.5058 67.7299 41.3838 68.0972 41.3872C68.3642 41.3895 68.5689 41.339 68.778 41.1988C69.7576 40.5409 70.588 39.7201 71.3601 38.8352C71.4786 38.699 71.6044 38.569 71.8187 38.3374C71.8816 38.6138 71.9259 38.7642 71.9491 38.9175C72.1339 40.1481 72.9111 40.7804 74.1531 40.6959C74.9955 40.6385 75.7749 40.3604 76.5237 39.9886C76.6354 39.9335 76.8004 39.8268 76.8026 39.74C76.8128 39.4022 77.0577 39.3455 77.2879 39.2785C77.5135 39.2127 77.6711 39.1377 77.7748 38.8806C77.9387 38.4747 78.2295 38.1512 78.7175 38.1001C78.7708 38.0944 78.8213 38.0598 78.8734 38.0388C78.8581 38.0206 78.8422 38.003 78.8269 37.9849C79.0259 37.7641 79.2254 37.5433 79.4426 37.302C79.2827 37.2413 79.1217 37.1806 78.9392 37.1113C79.0469 36.8383 79.281 36.8479 79.459 36.7685C79.6342 36.6907 79.9272 36.7997 79.985 36.4137C79.7215 36.4137 79.497 36.4137 79.2283 36.4137C79.421 35.8495 80.0366 36.026 80.3524 35.6832C80.0327 35.5521 79.6988 35.8972 79.4794 35.5328C79.7181 35.0588 80.4476 35.3721 80.6602 34.8079C80.2316 34.6473 79.8173 34.9759 79.404 34.6467C79.5265 34.5474 79.6058 34.4446 79.7084 34.4077C79.9204 34.3317 80.1449 34.2902 80.3649 34.2363C80.9351 34.0955 81.0411 33.9139 80.8966 33.3236C80.4397 33.2452 79.9726 33.6431 79.4516 33.3162C79.9221 32.8451 80.6222 32.9648 81.0706 32.5232C80.6029 32.2831 80.15 32.8939 79.7033 32.4596C80.1132 31.9857 80.8354 32.1668 81.2701 31.678C80.8512 31.4237 80.4164 31.8109 80.0514 31.4816C80.3478 31.0973 80.8234 31.2183 81.1964 31.048C81.0156 30.8703 80.6851 31.0576 80.6324 30.742C80.7804 30.3299 81.5088 30.6847 81.519 30.041C81.4192 30.0455 81.3467 30.0393 81.2786 30.0535C81.0576 30.1006 80.8399 30.1738 80.6165 30.1982C80.5304 30.2079 80.4329 30.1137 80.3405 30.0665C80.3892 29.9729 80.4147 29.8355 80.4913 29.7952C80.6715 29.6993 80.8767 29.6499 81.0717 29.5812C81.2356 29.5239 81.3994 29.466 81.5638 29.4087C81.2441 29.218 80.8903 29.5517 80.6046 29.2072C80.8694 28.8427 81.3444 28.9319 81.6692 28.6759C81.4952 28.4971 81.1641 28.7241 81.0865 28.3711C81.3274 28.2519 81.5729 28.1298 81.8183 28.0078C81.354 27.8653 80.9397 28.2246 80.4794 27.9839C80.6443 27.439 81.1857 27.6008 81.4992 27.3737C81.3892 27.2727 81.2781 27.1705 81.1233 27.0281C81.4703 26.8935 81.7531 26.784 82.036 26.6744C81.9357 26.5575 81.8512 26.5297 81.769 26.5354C81.6001 26.5478 81.43 26.6057 81.265 26.591C81.1602 26.5819 81.0644 26.4752 80.964 26.4128C81.0326 26.335 81.087 26.2198 81.1732 26.1868C81.3829 26.1057 81.6108 26.071 81.8257 26.0001C81.9708 25.9524 82.1766 25.9621 82.1868 25.7169C81.9277 25.567 81.5848 25.9399 81.3671 25.588C81.4487 25.0607 82.18 25.3638 82.3007 24.8796C82.0263 24.7173 81.7083 24.9812 81.4759 24.7195C81.6658 24.2649 82.3183 24.5759 82.5331 24.031C82.3024 24.0685 82.142 24.111 81.9804 24.1162C81.8166 24.1213 81.6159 24.1423 81.4952 24.0617C81.3042 23.9339 81.1454 23.9618 80.9646 24.0276C80.4334 24.2217 79.9074 24.4329 79.3689 24.6049C79.0701 24.7002 78.9148 24.8751 78.7878 25.1589C77.6212 27.7648 76.3514 30.3197 74.9325 32.7979C74.4739 33.5989 74.0499 34.4179 73.3334 35.0491C73.0176 35.3273 72.7869 35.7263 72.588 36.1072C72.1611 36.9257 71.5818 37.6148 70.8857 38.2006C70.4254 38.5877 69.8602 38.8602 69.4367 39.2796C69.0711 39.6418 68.6499 39.6889 68.2112 39.761C68.1205 39.7757 68.0162 39.7053 67.8382 39.6486C67.9844 39.5368 68.0558 39.4482 68.146 39.4204C68.4339 39.3318 68.7281 39.2649 69.0207 39.1911C69.2032 39.1451 69.3234 39.0622 69.265 38.8482C68.8529 38.6916 68.4504 39.1008 68.0366 38.834C68.1409 38.5639 68.3551 38.4986 68.574 38.4475C68.7945 38.3958 69.0195 38.3635 69.24 38.3113C69.7094 38.1994 69.8466 38.007 69.8477 37.4774C69.4022 37.3287 68.9549 37.7601 68.4254 37.4695C68.9526 36.9473 69.7253 37.1153 70.2916 36.6805C69.833 36.5573 69.4135 36.9637 69.0326 36.5658C69.2502 36.269 69.596 36.3473 69.8528 36.223C70.1 36.1032 70.4599 36.282 70.6924 35.8711C70.274 35.8512 69.9242 35.8347 69.5751 35.8183C69.9288 35.3806 70.4282 35.4204 70.846 35.2143C70.6753 35.2041 70.5047 35.1939 70.3069 35.182C70.3551 34.8471 70.5756 34.8141 70.8018 34.7778C71.0155 34.7432 71.2535 34.7358 71.338 34.4577C70.9775 34.1631 70.5676 34.6609 70.1725 34.3368C70.5234 33.8384 71.1424 33.9531 71.5619 33.6647C71.3097 33.4746 70.9531 33.8395 70.7111 33.432C70.8596 33.3605 70.9809 33.2838 71.113 33.243C71.3471 33.1709 71.5891 33.1243 71.825 33.0579C71.8607 33.0477 71.8828 32.9887 71.9168 32.945C71.7388 32.916 71.5874 32.8922 71.4151 32.8644C71.5251 32.3314 72.1158 32.6299 72.3085 32.2649C71.8437 32.1616 71.4094 32.6101 70.9129 32.2786C71.3669 31.8046 71.9497 31.8177 72.5205 31.598C72.2269 31.5645 72.0251 31.5412 71.7773 31.5128C72.0205 30.9123 72.703 31.3505 72.9496 30.8601C72.5619 30.7426 72.1282 31.1518 71.7671 30.7346C71.9922 30.4531 72.3034 30.4417 72.584 30.3611C72.8476 30.2856 73.1758 30.3464 73.3719 30.0115C73.0131 29.9144 72.6628 30.3418 72.3385 29.9456C72.6407 29.4195 73.3294 29.6703 73.7546 29.21C73.4887 29.21 73.3226 29.2151 73.1565 29.2083C73.0012 29.2021 72.8147 29.2526 72.728 29.0153C73.1106 28.7224 73.6525 28.874 74.0386 28.5459C73.6661 28.2939 73.2631 28.715 72.9179 28.3932C73.3124 27.8574 74.0562 28.1071 74.5238 27.6706C74.1576 27.4328 73.7614 27.8131 73.4473 27.485C73.8062 26.9554 74.6219 27.3754 74.979 26.7011C74.6259 26.7011 74.3487 26.7011 73.9876 26.7011C74.288 26.1284 75.0176 26.469 75.3061 25.8877C75.0459 25.932 74.8634 25.9518 74.686 25.995C73.953 26.1744 73.2217 26.3628 72.4893 26.5444C71.4565 26.801 71.4542 26.7987 71.0019 27.7705C70.3879 29.0891 69.7808 30.4117 69.1629 31.7285C68.3279 33.5069 67.4912 35.2841 66.6449 37.0574C66.0882 38.2239 65.4006 39.2955 64.4557 40.2009C63.772 40.8559 62.9495 40.844 62.1099 40.8406C62.0884 40.8406 62.0674 40.7838 62.0085 40.6998C62.1876 40.5857 62.3645 40.4733 62.5759 40.3388C62.3599 40.3019 62.1819 40.2718 62.0034 40.2412C61.9977 40.2026 61.992 40.164 61.9864 40.1248C62.1859 39.9994 62.3854 39.8734 62.5997 39.7383C62.3633 39.7207 62.1434 39.7048 61.8599 39.6838C62.1576 39.35 62.1604 39.3483 62.5158 39.2467C63.0283 39.1003 63.403 38.4833 63.3145 37.9037C63.2046 37.9247 63.0963 37.9469 62.9869 37.9662C62.8015 37.9996 62.6162 38.0462 62.4291 38.0564C62.3543 38.0604 62.2749 37.9837 62.1978 37.9434C62.2539 37.8606 62.2942 37.7561 62.3701 37.7011C62.4404 37.65 62.5498 37.6534 62.6411 37.6307C62.9257 37.5592 63.2097 37.4871 63.4937 37.415C63.1354 37.3134 62.7641 37.583 62.352 37.264C62.7686 36.9569 63.2692 37.0103 63.6881 36.7702C63.3049 36.6805 62.9325 36.8729 62.5731 36.597C63.1025 36.1685 63.831 36.4171 64.3678 35.9891C63.8769 35.7774 63.4801 36.2735 62.9977 35.9693C63.378 35.3562 64.1201 35.6014 64.5996 35.2365C64.2272 35.1002 63.8593 35.5276 63.475 35.1524C63.7335 34.9282 64.0209 34.8686 64.3043 34.7852C64.5611 34.7097 64.9029 34.7687 65.0384 34.4151C64.5611 34.2267 64.1008 34.5973 63.6308 34.3862C63.7147 34.1097 63.9115 34.0637 64.1161 34.0166C64.4279 33.9445 64.7391 33.8679 65.0469 33.7811C65.5072 33.6517 65.6223 33.4842 65.6461 32.941C65.1297 32.9206 64.6274 33.2447 64.0333 33.0602C64.3083 32.6044 64.7334 32.6742 65.0662 32.5465C65.3899 32.4222 65.7901 32.4835 66.0956 32.1435C65.5678 32.0759 65.1058 32.5005 64.5872 32.1372C65.1081 31.6156 65.9085 31.8404 66.5083 31.3102C65.9397 31.3102 65.4874 31.3102 64.9358 31.3102C65.4652 30.7097 66.2345 30.9628 66.8025 30.5564C66.4777 30.5189 66.2334 30.4906 65.9414 30.4571C66.0922 30.112 66.3496 30.1699 66.548 30.1023C66.7441 30.0359 66.9958 30.07 67.1522 29.8111C66.6795 29.6635 66.2288 30.1642 65.7748 29.7771C66.2101 29.2639 66.8881 29.4314 67.4215 29.0919C67.0343 29.0147 66.6483 29.3496 66.3269 28.9824C66.6834 28.5232 67.2985 28.7548 67.7667 28.4028C67.4697 28.3705 67.1919 28.5459 67.0457 28.2314C67.3399 27.8778 67.896 28.0889 68.2055 27.6507C68.0434 27.6507 67.9487 27.6331 67.8637 27.6536C66.7815 27.9141 65.6977 28.1678 64.6234 28.4573C64.4551 28.5027 64.2799 28.6901 64.1977 28.8564C63.9137 29.4308 63.6768 30.0285 63.4086 30.6115C62.4688 32.6532 61.5238 34.6932 60.5788 36.7333C59.8957 38.2068 59.2376 39.6946 58.2325 40.9899C57.7666 41.5904 57.2564 42.1297 56.558 42.4839C55.9532 42.7909 55.3307 42.4998 54.727 42.6246C54.6766 42.6348 54.6085 42.5594 54.4578 42.4691C54.7452 42.321 54.9611 42.2097 55.2502 42.061C54.9322 41.9724 54.6539 42.1836 54.4402 41.8419C54.744 41.7039 55.0286 41.5745 55.3137 41.4457C55.3018 41.4071 55.2894 41.369 55.2775 41.3305C55.0694 41.3305 54.8608 41.3305 54.5927 41.3305C54.7457 40.7952 55.3551 41.058 55.5813 40.6141C55.2332 40.6141 54.9413 40.6141 54.5485 40.6141C54.9016 39.9846 55.5405 40.156 55.9384 39.8138C55.6476 39.8138 55.3563 39.8138 55.0065 39.8138C55.282 39.1843 56.049 39.5674 56.3562 39.0049C55.9509 39.0321 55.6079 39.0549 55.214 39.0815C55.2775 38.607 55.6295 38.6955 55.8562 38.5922C56.1079 38.4776 56.4458 38.5502 56.6465 38.2681C56.2428 38.0428 55.8273 38.5378 55.4084 38.1597C55.8075 37.7261 56.4214 37.8521 56.8811 37.5189C56.5104 37.3582 56.1351 37.6642 55.7763 37.3764C56.0439 37.0914 56.3698 37.1022 56.6714 37.0489C57.1351 36.9671 57.1952 36.8701 57.1045 36.2741C56.9656 36.3371 56.7457 36.3853 56.7423 36.4461C56.7128 36.9802 56.3551 36.8945 56.0184 36.8945C55.9809 36.6521 55.9481 36.4415 55.9152 36.2281C56.138 36.1435 56.3364 36.0811 56.5229 35.9937C56.6992 35.9114 56.9894 35.9806 57.0285 35.6406C56.6606 35.5328 56.2734 35.8847 55.8681 35.5015C56.1618 35.3767 56.4027 35.2739 56.643 35.1717C56.5098 35.0985 56.3914 35.1156 56.2751 35.1059C56.168 35.0974 56.0099 35.0957 55.9662 35.0298C55.7156 34.649 55.3693 34.7863 55.0456 34.8374C54.7939 34.8771 54.5479 34.9555 54.2996 35.0162C54.2735 34.9714 54.2475 34.9271 54.2214 34.8823C55.2525 33.9894 56.2757 33.088 57.3369 32.2275C58.3992 31.3664 59.4326 30.4701 60.4791 29.5892C59.8867 29.6238 59.3419 29.7549 58.7943 29.8719C58.4145 29.9525 58.0897 30.1193 57.8012 30.3827C56.2814 31.7705 54.7571 33.1538 53.2305 34.5343C52.7124 35.0032 52.1846 35.4618 51.6552 35.917C51.5973 35.967 51.4964 35.967 51.3678 36.0039C51.3678 35.8115 51.3678 35.6724 51.3678 35.5572C51.162 35.4993 50.9953 35.4527 50.8287 35.4062C50.8241 35.3585 50.8196 35.3108 50.8151 35.2637C51.0889 35.1462 51.3627 35.0293 51.6795 34.893C51.4772 34.8215 51.3201 34.7665 51.1631 34.7108C51.1569 34.6694 51.1506 34.6285 51.1444 34.5871C51.3904 34.477 51.6364 34.3674 51.9358 34.2335C51.6387 34.1682 51.4193 34.1199 51.2005 34.0717C51.1988 34.0257 51.1977 33.9797 51.196 33.9338C51.5707 33.818 51.9448 33.7027 52.3195 33.5869C51.9686 33.386 51.6098 33.7362 51.2788 33.4541C51.3434 33.1873 51.5378 33.1232 51.7402 33.071C51.9958 33.0046 52.2532 32.945 52.5077 32.8751C52.6636 32.832 52.7844 32.7525 52.7277 32.5107C52.5678 32.5385 52.408 32.5675 52.2481 32.5936C52.0707 32.6231 51.8768 32.7236 51.7135 32.4176C51.9726 32.3115 52.2181 32.1997 52.472 32.1106C52.7135 32.026 53.0355 32.089 53.1455 31.7581C52.8263 31.5197 52.442 31.8988 52.103 31.5293C52.2532 31.4396 52.3615 31.3448 52.4862 31.3074C52.7203 31.2381 52.9692 31.2171 53.2033 31.1462C53.3365 31.1059 53.4969 31.0349 53.5655 30.9271C53.6914 30.729 53.7588 30.494 53.8557 30.2618C53.4102 30.1239 52.9794 30.5723 52.5225 30.1046C52.866 29.9803 53.1392 29.8826 53.4113 29.7816C53.6675 29.6862 53.9873 29.7243 54.2038 29.4297C53.8013 29.2861 53.4408 29.7078 53.0395 29.3945C53.2356 29.0885 53.5423 29.0777 53.82 28.9966C54.1057 28.9131 54.4566 28.9211 54.629 28.5328C54.2219 28.4165 53.8178 28.7105 53.4465 28.4494C53.5445 28.19 53.756 28.1639 53.9521 28.1236C54.2287 28.0662 54.5082 28.022 54.7843 27.9618C54.8172 27.9544 54.8353 27.8806 54.8614 27.8364C54.7032 27.7637 54.5609 27.6979 54.4232 27.6348C54.5485 27.2193 54.9628 27.393 55.2157 27.1802C54.9033 27.0451 54.591 27.3743 54.3024 27.0712C54.5349 26.5359 55.1578 26.7159 55.5377 26.4258C55.2967 26.2595 54.9923 26.6097 54.7741 26.2328C54.8926 26.1568 54.9991 26.0603 55.1244 26.0143C55.282 25.957 55.456 25.945 55.6204 25.9047C55.6692 25.8928 55.7111 25.8519 55.7582 25.823C55.6335 25.7061 55.5445 25.6226 55.3874 25.4756C55.6306 25.3683 55.8063 25.2758 55.9917 25.2128C56.2423 25.1271 56.3194 24.9528 56.3432 24.6667C56.1459 24.7252 56.0008 24.7581 55.8636 24.8109C55.1068 25.1027 54.3552 25.4086 53.5956 25.6919C52.2158 26.2067 52.2169 26.2033 51.6149 27.5457C50.1547 30.8045 48.6933 34.0626 47.2285 37.3191C46.2829 39.4215 45.3363 41.5234 44.376 43.6185C44.27 43.8501 44.1028 44.076 43.91 44.2418C43.181 44.869 42.4452 45.4911 41.6828 46.0769C40.6193 46.8932 39.5309 47.6748 38.34 48.3043C37.8598 48.558 37.3485 48.7328 36.8247 48.7022C36.4126 48.6778 36.0112 48.4689 35.6054 48.3423C35.6462 47.9853 35.2896 48.0676 35.0963 47.9251C35.1791 47.7996 35.246 47.6975 35.2959 47.6208C35.2052 47.5079 35.1213 47.4029 35.0374 47.2979C35.1422 47.2315 35.2392 47.1378 35.3531 47.1043C35.6791 47.0107 35.8004 46.8086 35.7641 46.4799C35.5237 46.3579 35.2029 46.6417 35.0068 46.2364C35.3491 46.1008 35.6808 45.9691 36.09 45.8067C35.691 45.6546 35.3616 46.0707 35.0453 45.7454C35.3208 45.2947 35.8667 45.4724 36.2471 45.2357C35.9472 45.028 35.5611 45.2817 35.3208 44.9349C35.7153 44.634 36.2646 44.8009 36.6728 44.4342C36.242 44.2605 35.8349 44.7765 35.4138 44.3071C35.6377 44.1924 35.8032 44.0829 35.984 44.0216C36.251 43.9307 36.5322 43.8814 36.8032 43.799C36.946 43.7559 37.0945 43.6918 37.0282 43.4698C36.6762 43.3455 36.2907 43.7911 35.9058 43.4267C36.2669 42.9987 36.8309 43.1412 37.2544 42.8857C36.8462 42.7751 36.4562 43.0617 36.0759 42.8505C36.0929 42.6059 36.2397 42.5469 36.4154 42.51C36.6734 42.4555 36.9267 42.3624 37.1864 42.3397C37.7918 42.2863 37.9789 41.8691 38.1432 41.2936C37.8456 41.3412 37.6127 41.3861 37.3774 41.4145C37.1382 41.4434 36.8763 41.57 36.6376 41.2896C36.9625 41.0336 37.3128 40.9655 37.6529 40.8781C38.3893 40.6879 38.3898 40.6902 38.5525 40.4177C38.2651 40.4756 38.0123 40.5329 37.7566 40.5761C37.5049 40.6187 37.2255 40.8054 36.9693 40.4319C37.4715 40.0681 38.1075 40.177 38.6154 39.8802C38.2731 39.694 37.9154 40 37.5939 39.7644C37.6739 39.4613 37.9227 39.4732 38.1308 39.4312C38.5004 39.3568 38.8734 39.2989 39.2413 39.2172C39.3195 39.1996 39.3802 39.1065 39.4839 39.0197C39.0599 38.8976 38.6971 39.2478 38.3348 39.0083C38.4964 38.6944 38.4953 38.687 38.7657 38.6473C39.1483 38.5911 39.519 38.5071 39.9805 38.2795C39.3388 38.0995 38.8212 38.6797 38.192 38.2727C38.8847 37.8101 39.6437 37.8118 40.3297 37.5314C39.866 37.2441 39.4119 37.8719 38.9454 37.4337C39.3524 37.0733 39.8688 37.1459 40.2922 36.9609C40.2112 36.8474 40.142 36.7509 40.015 36.5738C40.4515 36.4461 40.8217 36.3371 41.1856 36.2304C41.1856 36.0964 41.1856 35.9727 41.1856 35.8535C41.8302 35.6361 42.4481 35.4136 43.0756 35.2206C43.4639 35.1014 43.8307 35.1882 44.1175 35.4862C44.2054 35.5776 44.2371 35.7229 44.3227 35.9034C43.3273 35.971 42.5716 36.3359 41.9747 37.0239C41.401 37.6852 40.9101 38.3788 40.9181 39.2774C41.1306 39.4425 41.4543 39.2603 41.5139 39.623C41.3602 39.7093 41.206 39.7962 41.0547 39.8813C41.3285 40.4523 41.6618 40.6851 42.265 40.6828C42.9452 40.6805 43.524 40.4342 43.9395 39.8138C43.7331 39.8138 43.5262 39.8138 43.1742 39.8138C43.3607 39.635 43.4344 39.5396 43.5296 39.4794C43.6379 39.4113 43.8335 39.4051 43.8737 39.3182C44.0421 38.9544 44.3306 38.9112 44.6725 38.926C44.7127 38.9277 44.758 38.8096 44.8051 38.741C44.5341 38.5877 44.2467 38.9175 44.0143 38.6098C44.2405 38.1841 44.7717 38.3658 45.0846 38.0984C44.8731 37.8838 44.533 38.1932 44.3658 37.8691C44.5177 37.4962 44.9888 37.675 45.2201 37.3963C44.9423 37.2095 44.6067 37.5944 44.3726 37.2873C44.4723 36.7617 45.0596 36.9921 45.3397 36.651C45.0489 36.63 44.8255 36.6135 44.5619 36.5942C44.6912 36.1628 45.0942 36.3025 45.266 36.0873C45.3096 35.1922 44.715 34.4554 43.783 34.2352C43.0359 34.0586 42.3131 34.1988 41.6102 34.4287C39.9102 34.985 38.4664 35.9812 37.1665 37.18C35.7425 38.4935 34.5822 40.038 33.5278 41.6546C32.0216 43.9642 30.5721 46.3108 29.0756 48.6267C28.469 49.565 27.782 50.4465 26.82 51.0601C26.6483 51.1696 26.4538 51.2633 26.2571 51.3087C25.8167 51.4109 25.4867 51.2315 25.4057 50.7916C25.353 50.5061 25.2345 50.3188 24.9471 50.1803C25.1438 49.9884 25.3076 49.8136 25.0865 49.5644C25.2742 49.4702 25.417 49.3986 25.6058 49.3033C25.4028 49.2817 25.2498 49.2653 25.0735 49.2465C25.1591 48.7113 25.7571 48.9627 25.9482 48.6324C25.76 48.4394 25.4238 48.7646 25.2895 48.3463C25.6188 48.214 25.9425 48.084 26.3512 47.9194C26.0139 47.8592 25.7889 47.8195 25.5638 47.7792C25.5604 47.7287 25.557 47.6787 25.5536 47.6282C25.7554 47.5709 25.9629 47.5266 26.1579 47.4523C26.3512 47.3779 26.6165 47.4358 26.7571 47.1435C26.4028 47.085 26.0525 47.4755 25.735 47.0986C26.0536 46.5668 26.7752 46.8188 27.1465 46.3579C26.8529 46.1728 26.5043 46.4243 26.2463 46.1484C26.574 45.6807 27.2287 45.9395 27.5881 45.5229C27.282 45.3396 26.9135 45.6608 26.6619 45.3333C26.8489 45.0098 27.1703 45.0211 27.4566 44.9746C28.015 44.8843 28.295 44.5415 28.4197 43.9256C27.9424 43.9864 27.5156 44.0403 27.0269 44.1022C27.1511 43.5578 27.5745 43.6583 27.85 43.53C28.142 43.3938 28.511 43.446 28.8613 43.1327C28.363 43.1162 27.9515 43.3892 27.5456 43.0611C28.0541 42.59 28.8211 42.7915 29.3664 42.3017C28.8647 42.1297 28.405 42.4561 27.9583 42.191C28.1646 41.8459 28.5059 41.8981 28.7757 41.8146C29.0529 41.7284 29.3432 41.6864 29.6714 41.6154C29.4248 41.3617 29.0807 41.6449 28.9027 41.3066C29.1867 40.9456 29.7609 41.1522 30.1396 40.6828C29.8176 40.7407 29.6192 40.7708 29.4231 40.8128C29.2128 40.8582 28.9991 41.0024 28.7808 40.7645C28.9384 40.4115 29.2666 40.3876 29.5682 40.3082C29.8601 40.231 30.1725 40.2015 30.5064 40.0147C30.0347 39.8387 29.6436 40.3116 29.2213 39.9795C29.5722 39.5038 30.1708 39.6736 30.5778 39.4011C30.3737 39.3665 30.185 39.3341 29.9962 39.3023C30.0784 39.1162 30.1685 39.0253 30.2774 38.9873C30.4905 38.9129 30.715 38.8715 30.9327 38.8096C31.3527 38.6899 31.4564 38.5463 31.4944 38.0161C31.3436 38.0292 31.1951 38.028 31.0523 38.0564C29.8312 38.2999 28.6119 38.5536 27.3903 38.7932C27.1171 38.8465 26.9685 39.0157 26.8472 39.2416C26.3648 40.1401 25.8694 41.0324 25.3966 41.9361C24.8711 42.9408 24.3774 43.9614 23.8473 44.9638C23.141 46.2994 22.4137 47.6237 21.6955 48.9531C21.2001 49.8698 21.0198 50.833 21.2743 51.8576C21.687 53.5202 23.2946 54.6628 25.1755 53.695C26.0088 53.2664 26.7645 52.7329 27.3733 52.0301C28.151 51.1327 28.9055 50.2098 29.6056 49.2511C30.3068 48.2918 30.9281 47.2735 31.5874 46.283C31.6957 46.1201 31.8192 45.9668 31.936 45.809C31.9797 45.8289 32.0233 45.8487 32.0664 45.868C32.0352 46.0627 31.9961 46.2568 31.974 46.4527C31.9156 46.9777 31.8175 47.5039 31.8209 48.029C31.8289 49.3481 32.648 50.3295 33.9342 50.6168C34.7687 50.8029 35.5895 50.7019 36.3899 50.438C37.9885 49.9112 39.4006 49.045 40.6987 47.9892C41.3427 47.4653 41.9509 46.8977 42.5824 46.3585C42.7253 46.2364 42.8415 46.015 43.1266 46.1303C43.1385 46.6003 42.795 46.921 42.6561 47.3177C42.5161 47.719 42.3364 48.1073 42.1658 48.5205C42.8964 48.5279 45.563 47.8178 45.8243 47.563C45.6356 47.5431 45.4468 47.5227 45.2246 47.4988C45.385 46.93 45.9695 47.2417 46.216 46.9289C45.953 46.7393 45.5851 47.0283 45.3771 46.6701C45.7121 46.3494 46.2342 46.4879 46.5953 46.1501C46.1945 46.0508 45.8379 46.3261 45.4927 46.0951C45.576 45.6796 45.9967 45.7874 46.1962 45.5871C46.2002 45.5848 46.1826 45.5973 46.1826 45.5973ZM45.4876 19.7341C45.7529 19.6172 45.9252 19.5195 46.1106 19.4639C46.5805 19.3237 47.0522 19.1818 47.5306 19.0779C48.4098 18.8872 49.259 18.5143 50.1909 18.6238C50.2794 18.6341 50.3763 18.5955 50.4659 18.5676C51.2952 18.3116 52.1217 18.0466 52.9527 17.7957C54.3257 17.3813 55.6896 16.9289 57.0784 16.5753C59.9315 15.8499 62.793 15.1562 65.6608 14.4921C69.0252 13.7133 72.3952 12.959 75.7715 12.233C78.539 11.6381 81.3331 11.1528 84.0506 10.3524C85.6226 9.88926 87.1548 9.29155 88.7035 8.75004C88.7863 8.72109 88.856 8.65468 88.9291 8.607C88.8605 8.4719 88.8061 8.36405 88.7234 8.20115C89.2641 8.03256 89.7613 7.8776 90.2533 7.72434C90.2312 7.27819 90.272 7.21348 90.6445 7.11415C90.7533 7.0852 90.8684 7.07896 90.9784 7.05228C91.3338 6.96543 91.6875 6.87348 92.0418 6.78322C91.8933 6.68446 91.7618 6.68957 91.6342 6.66913C91.5174 6.64983 91.4052 6.60272 91.2363 6.55107C91.8009 6.05723 92.607 6.33821 93.1727 5.76945C92.6455 5.71325 92.2328 6.12478 91.7113 5.76548C92.3422 5.35622 93.0695 5.38914 93.7248 5.02359C93.1829 4.89815 92.7152 5.37609 92.2085 4.97648C92.7725 4.38615 93.5582 4.51046 94.2838 4.2136C93.8671 4.01947 93.4743 4.40148 93.15 3.96895C93.5871 3.80037 93.9845 3.64654 94.4941 3.45014C93.4601 3.2861 93.493 3.31675 92.9301 3.91219C92.4273 4.44462 91.8967 4.98783 91.2805 5.36587C90.255 5.99536 89.1791 6.56299 88.0737 7.03752C85.7042 8.05527 83.2088 8.65751 80.6766 9.12126C77.7799 9.65142 74.8804 10.1577 71.948 10.4506C67.8733 10.8576 63.7981 11.2584 59.7245 11.6778C58.4859 11.805 57.2462 11.9441 56.0189 12.149C54.4935 12.4038 52.9811 12.7353 51.4619 13.0305C49.3996 13.4312 47.3997 14.0533 45.4247 14.7572C43.1266 15.5763 40.8999 16.5577 38.7974 17.8053C37.7436 18.4308 36.6682 19.0291 35.6615 19.725C34.2018 20.7337 32.8113 21.8389 31.5279 23.0723C29.8261 24.7082 28.0654 26.2867 26.4277 27.9839C24.4488 30.0348 22.56 32.1741 20.6564 34.2965C19.6236 35.4482 18.5993 36.6129 17.6447 37.8294C16.177 39.7002 14.7604 41.6114 13.3449 43.5226C12.0854 45.2226 10.8898 46.9681 9.80314 48.7856C9.28956 49.6444 8.78675 50.5101 8.26636 51.3649C8.13031 51.5885 7.97272 51.811 7.78112 51.987C7.49938 52.2464 7.22672 52.1913 7.02605 51.8695C6.94725 51.7435 6.8968 51.5993 6.83445 51.4648C6.65361 51.4234 6.48582 51.3842 6.24717 51.3291C6.44727 51.1401 6.58672 51.0079 6.80497 50.8012C6.49036 50.7547 6.27041 50.7223 6.04423 50.6889C6.04139 50.4522 6.18368 50.4056 6.32993 50.3602C6.46825 50.3171 6.64568 50.3097 6.59863 50.073C6.33107 49.8471 5.98471 50.2909 5.71828 50.0032C5.78857 49.4611 6.5153 49.8357 6.63604 49.3039C6.2568 49.1954 5.8617 49.4651 5.48359 49.1881C5.57996 49.1097 5.63778 49.0314 5.71261 49.0076C5.92689 48.9389 6.14627 48.8832 6.36734 48.8401C6.56915 48.8004 6.73184 48.7447 6.69329 48.4689C6.26191 48.2975 5.81578 48.8742 5.31297 48.4019C5.54028 48.285 5.70751 48.1766 5.89061 48.1113C6.10262 48.0352 6.33106 48.0057 6.54761 47.9404C6.71484 47.8899 6.87129 47.8121 6.79136 47.5567C6.40249 47.3898 5.93596 47.8774 5.50854 47.4358C5.66216 47.3586 5.76816 47.2842 5.88607 47.2502C6.13946 47.177 6.39852 47.1225 6.65588 47.0646C6.83501 47.0243 6.97276 46.9573 6.92741 46.7127C6.50396 46.6105 6.07824 46.9278 5.66272 46.7098C5.68313 46.4345 5.86226 46.3937 6.05273 46.3528C6.31066 46.2983 6.56972 46.2432 6.82027 46.1626C6.93535 46.1257 7.09067 46.0491 7.12468 45.9537C7.21992 45.6836 7.26243 45.3941 7.32535 45.112C6.87469 45.0206 6.45351 45.3628 6.05613 44.9468C6.20919 44.8662 6.31236 44.789 6.428 44.7555C6.69953 44.676 6.97616 44.6147 7.25166 44.55C7.50505 44.4904 7.62976 44.3485 7.59632 44.0181C7.30778 44.0942 7.06006 44.1754 6.8061 44.2225C6.56462 44.2668 6.29989 44.4007 6.03516 44.0936C6.52947 43.635 7.30155 43.8206 7.81286 43.3466C7.41889 43.077 6.96029 43.3989 6.64454 43.0435C7.03455 42.6996 7.62466 42.9039 7.97045 42.506C7.7267 42.3045 7.36277 42.6048 7.1706 42.1847C7.52546 42.0564 7.86048 41.935 8.25389 41.7931C7.89733 41.6001 7.56627 41.9872 7.28794 41.6943C7.30041 41.6302 7.29474 41.5427 7.32309 41.5297C7.70346 41.3583 8.08893 41.1976 8.4727 41.0342C8.46986 41.0109 8.46646 40.9876 8.46363 40.9638C8.22384 40.9524 7.98462 40.9405 7.66831 40.9252C7.89166 40.4081 8.4778 40.6919 8.67564 40.307C8.52032 40.269 8.36839 40.2321 8.07249 40.1606C8.31908 39.9965 8.45059 39.8756 8.60591 39.8143C8.78788 39.7428 9.02993 39.7701 9.02086 39.4766C8.8474 39.3943 8.69378 39.3216 8.4642 39.2127C8.64163 39.1099 8.73289 39.0134 8.82586 39.0111C9.23287 39.0026 9.412 38.7574 9.56449 38.4197C9.93579 37.5938 10.3383 36.7821 10.7232 35.9624C11.6993 33.8861 12.9119 31.9528 14.2519 30.0955C14.4554 29.8134 14.6788 29.6675 15.0376 29.6357C16.5653 29.5001 18.0743 29.2458 19.4944 28.6384C20.1672 28.3506 20.805 27.98 21.4563 27.6422C21.4994 27.6201 21.5209 27.5554 21.5527 27.5111C21.4807 27.4169 21.4143 27.3312 21.3429 27.2369C21.5113 26.9832 21.7318 26.9134 21.9863 27.0173C22.2862 27.1399 22.3837 26.9594 22.5124 26.7244C22.3043 26.6881 22.1348 26.6585 21.9325 26.6228C22.0935 26.2113 22.539 26.3969 22.7573 26.1437C22.5022 25.957 22.1343 26.2867 21.9387 25.9354C22.1252 25.5681 22.6348 25.7855 22.8939 25.3371C22.4738 25.3632 22.1433 25.3837 21.8151 25.4035C21.7267 24.9443 22.1734 25.038 22.3259 24.7842C22.1666 24.7672 22.0617 24.7411 21.958 24.7468C21.6212 24.7649 21.2346 25.0822 20.9886 24.5606C20.9659 24.5124 20.776 24.5328 20.6644 24.5385C19.8855 24.5754 19.1395 24.7564 18.3992 24.9999C17.1135 25.4223 15.9491 26.0807 14.8097 26.7891C14.5065 26.9775 14.1998 27.0587 13.8517 27.0752C12.9663 27.1177 12.0803 27.166 11.1971 27.2381C9.59737 27.3686 8.07192 27.7694 6.67459 28.5811C5.55956 29.2287 4.63782 30.0751 4.07946 31.2665C4.04091 31.3494 4.04715 31.4533 4.01483 31.6576C5.30446 30.7982 6.65815 30.3952 8.05265 30.1364C9.43241 29.8798 10.8246 29.6942 12.3597 29.7146C12.2186 29.9769 12.1494 30.1443 12.0474 30.2874C11.718 30.7483 11.3626 31.1904 11.0423 31.6576C9.68807 33.6358 8.31624 35.6026 7.00451 37.6091C6.18878 38.8568 5.42464 40.143 4.71775 41.4553C3.86801 43.0333 3.08573 44.6493 2.31026 46.2659C2.00925 46.8937 1.81141 47.5703 1.56029 48.2225C0.982646 49.7211 0.657263 51.2678 0.73379 52.8787C0.778006 53.813 1.01723 54.7008 1.50133 55.5193C2.43894 57.1047 3.87312 58.0208 5.56976 58.5833C6.32029 58.832 6.72674 58.6991 7.14396 57.997C7.71253 57.0406 8.21647 56.0461 8.7669 55.0783C9.56959 53.666 10.3734 52.2538 11.2039 50.858C12.4204 48.8123 13.6664 46.7842 15.0671 44.8565C15.8664 43.7565 16.6016 42.6019 17.4814 41.5706C18.7053 40.1362 20.0108 38.7682 21.3304 37.4201C22.624 36.0981 23.9721 34.83 25.3082 33.5512C26.0037 32.8859 26.7061 32.2246 27.4396 31.6025C29.0376 30.247 30.6532 28.9126 32.2727 27.5826C32.529 27.372 32.7591 27.1836 32.665 26.8158C33.1151 26.6177 33.6344 26.6903 34.0113 26.2998C33.2438 26.2737 33.2438 26.2737 33.0091 26.0926C33.7528 25.7032 34.5924 25.7015 35.3151 25.3661C34.7488 25.2219 34.1973 25.6266 33.5289 25.3666C34.1179 24.8683 34.7794 24.9114 35.3537 24.7252C35.9546 24.5305 36.581 24.417 37.1966 24.2683C37.1886 24.2325 37.1807 24.1968 37.1728 24.1604C36.8695 24.2337 36.5685 24.3205 36.2618 24.3756C35.9466 24.4323 35.6241 24.5759 35.3021 24.4215C35.314 24.329 35.3078 24.2677 35.3242 24.2603C36.4732 23.7642 37.6937 23.5054 39.0332 23.2221C38.658 23.0842 38.3422 23.3413 38.0837 22.9769C38.9692 22.5603 39.9289 22.5688 40.871 22.2895C40.4198 22.1255 40.0065 22.4053 39.6131 22.2129C39.6789 21.9092 39.9141 21.8967 40.1018 21.8604C41.0819 21.6708 42.066 21.5034 43.0467 21.3144C43.2967 21.2661 43.5364 21.1668 43.8868 21.0584C43.4282 20.8728 43.0433 21.2122 42.6113 20.8852C42.8851 20.7677 43.0728 20.6548 43.2757 20.6071C43.7161 20.5038 44.1645 20.4346 44.6095 20.3494C45.313 20.2155 46.0171 20.0832 46.7194 19.9413C46.8027 19.9243 46.8736 19.8499 46.9864 19.7801C46.483 19.6422 46.0471 20.14 45.4876 19.7341ZM41.1437 41.327C40.8041 41.2164 40.5564 41.3106 40.3603 41.5916C40.2741 41.7153 40.176 41.8328 40.104 41.9639C39.2152 43.5851 38.4187 45.2505 37.7317 46.9675C37.6659 47.1316 37.6472 47.3143 37.6013 47.513C38.0185 47.6475 38.2657 47.4806 38.506 47.3478C40.1806 46.4226 41.6731 45.2442 43.1056 43.9869C43.5098 43.6322 43.8029 43.1962 43.8913 42.6468C43.9316 42.3959 43.8862 42.1893 43.6164 42.1036L41.1437 41.327ZM32.2007 32.7435C31.0319 32.5709 29.3539 33.3554 28.7508 34.5598C28.3115 35.4374 28.6017 36.1225 29.4905 36.5244C30.5959 37.0239 32.8005 36.2763 33.3759 35.17C33.3946 35.1343 33.364 35.073 33.3572 35.0276C33.0482 34.968 32.7143 35.3494 32.3833 34.8823C32.8283 34.733 33.2211 34.6013 33.614 34.4696C33.4008 34.3986 33.2092 34.4253 33.021 34.4668C32.8266 34.5099 32.6282 34.6132 32.4564 34.3822C32.7376 33.9201 33.3509 34.1637 33.7007 33.7902C33.2563 33.3832 32.7104 34.1046 32.2421 33.5591C32.5811 33.4053 32.8731 33.273 33.2444 33.105C32.6934 32.9898 32.254 33.4019 31.724 33.1028C31.8992 32.9711 32.0228 32.8774 32.2007 32.7435ZM94.0383 2.1974C94.519 2.24394 94.6256 2.17583 94.5944 1.82107C94.5746 1.59175 94.5015 1.36697 94.4527 1.13992C94.4102 1.13992 94.3677 1.14049 94.3252 1.14049C94.2299 1.49014 94.1353 1.84036 94.0383 2.1974ZM93.8564 2.59076C93.7883 2.75481 93.7362 2.88195 93.6546 3.07892C94.0264 2.99718 94.3495 3.01137 94.6318 2.68215C94.3467 2.64866 94.1347 2.62368 93.8564 2.59076Z" fill="black"/>
<path d="M45.4868 19.7337C46.0463 20.1395 46.4823 19.6417 46.9862 19.7785C46.8734 19.8483 46.802 19.9233 46.7192 19.9397C46.0174 20.0816 45.3128 20.2139 44.6093 20.3479C44.1643 20.4324 43.7159 20.5017 43.2755 20.6056C43.0725 20.6532 42.8849 20.7662 42.6111 20.8837C43.0436 21.2101 43.4285 20.8706 43.8866 21.0568C43.5362 21.1652 43.2965 21.2646 43.0465 21.3128C42.0663 21.5018 41.0817 21.6693 40.1016 21.8589C39.9139 21.8952 39.6787 21.9077 39.6129 22.2114C40.0063 22.4038 40.4196 22.1239 40.8708 22.288C39.9287 22.5673 38.969 22.5582 38.0835 22.9754C38.342 23.3392 38.6572 23.0827 39.033 23.2206C37.6941 23.5044 36.473 23.7627 35.324 24.2588C35.307 24.2661 35.3132 24.3274 35.3019 24.42C35.6239 24.5749 35.9464 24.4308 36.2616 24.374C36.5683 24.3189 36.8693 24.2315 37.1726 24.1589C37.1805 24.1946 37.1884 24.2304 37.1964 24.2667C36.5807 24.4154 35.9543 24.529 35.3535 24.7237C34.7792 24.9098 34.1177 24.8667 33.5287 25.3651C34.1971 25.625 34.7492 25.2203 35.3149 25.3645C34.5927 25.7 33.7526 25.7017 33.0089 26.0911C33.243 26.2721 33.243 26.2721 34.0111 26.2982C33.6342 26.6888 33.1149 26.6161 32.6648 26.8142C32.7589 27.182 32.5288 27.371 32.2725 27.5811C30.653 28.911 29.0374 30.2455 27.4394 31.601C26.7059 32.2231 26.0035 32.8838 25.308 33.5496C23.9719 34.8285 22.6233 36.0971 21.3302 37.4185C20.0106 38.7672 18.7051 40.1346 17.4812 41.569C16.6014 42.6004 15.8662 43.7549 15.0669 44.8549C13.6662 46.7826 12.4207 48.8107 11.2037 50.8564C10.3732 52.2522 9.56939 53.6644 8.7667 55.0767C8.21683 56.0445 7.71289 57.0395 7.14375 57.9954C6.72653 58.697 6.32009 58.8304 5.56955 58.5818C3.87234 58.0193 2.43816 57.1037 1.50113 55.5177C1.01702 54.6992 0.777799 53.8115 0.733583 52.8772C0.657623 51.2668 0.982439 49.72 1.56008 48.221C1.8112 47.5688 2.00961 46.8921 2.31005 46.2644C3.08553 44.6472 3.86781 43.0317 4.71755 41.4538C5.42443 40.1414 6.18857 38.8546 7.0043 37.6075C8.31604 35.601 9.68786 33.6342 11.0421 31.656C11.3618 31.1889 11.7178 30.7467 12.0472 30.2858C12.1492 30.1427 12.2184 29.9753 12.3595 29.7131C10.8244 29.6926 9.4322 29.8788 8.05244 30.1348C6.65794 30.3936 5.30369 30.7966 4.01463 31.656C4.04637 31.4517 4.04014 31.3478 4.07925 31.2649C4.63762 30.0741 5.55935 29.2277 6.67438 28.5795C8.07115 27.7678 9.59716 27.3671 11.1969 27.2365C12.0806 27.1644 12.9661 27.1162 13.8515 27.0736C14.1996 27.0571 14.5063 26.976 14.8095 26.7875C15.9489 26.0791 17.1133 25.4213 18.399 24.9984C19.1399 24.7549 19.8859 24.5738 20.6642 24.5369C20.7758 24.5318 20.9657 24.5108 20.9884 24.559C21.2344 25.0807 21.621 24.7634 21.9578 24.7452C22.0615 24.7395 22.1664 24.7651 22.3257 24.7827C22.1732 25.0364 21.7265 24.9428 21.8149 25.402C22.1431 25.3815 22.4736 25.3611 22.8937 25.3355C22.634 25.784 22.125 25.5671 21.9385 25.9338C22.1341 26.2846 22.502 25.9548 22.7571 26.1421C22.5388 26.3953 22.0932 26.2097 21.9323 26.6212C22.1346 26.6564 22.3036 26.6859 22.5122 26.7228C22.3829 26.9578 22.286 27.1383 21.9861 27.0157C21.731 26.9118 21.5105 26.9811 21.3427 27.2354C21.4147 27.329 21.4805 27.4153 21.5525 27.5095C21.5213 27.5538 21.4992 27.618 21.4561 27.6407C20.8048 27.979 20.167 28.3496 19.4941 28.6368C18.0741 29.2436 16.5651 29.4979 15.0374 29.6342C14.6786 29.6659 14.4552 29.8113 14.2517 30.0939C12.9117 31.9512 11.6997 33.8845 10.723 35.9609C10.3375 36.7805 9.93558 37.5922 9.56428 38.4181C9.41236 38.7558 9.23267 39.0011 8.82565 39.0096C8.73269 39.0113 8.64142 39.1083 8.46399 39.2111C8.69357 39.3201 8.84776 39.3927 9.02066 39.475C9.02973 39.7685 8.78767 39.7412 8.60571 39.8128C8.45038 39.8741 8.31887 39.995 8.07228 40.159C8.36819 40.2311 8.51954 40.268 8.67543 40.3055C8.47759 40.6909 7.89145 40.4065 7.6681 40.9236C7.98442 40.9389 8.22364 40.9503 8.46342 40.9622C8.46626 40.9855 8.46966 41.0087 8.47249 41.0326C8.08872 41.1961 7.70325 41.3567 7.32288 41.5281C7.29454 41.5406 7.30021 41.6286 7.28773 41.6927C7.56663 41.9856 7.89769 41.5985 8.25368 41.7915C7.86027 41.934 7.52525 42.0549 7.17039 42.1832C7.36256 42.6032 7.72649 42.3029 7.97025 42.5044C7.62502 42.9018 7.03434 42.6974 6.64434 43.042C6.96008 43.3973 7.41868 43.0755 7.81266 43.3451C7.30134 43.8185 6.52926 43.6329 6.03495 44.0921C6.29968 44.3986 6.56497 44.2652 6.80589 44.2209C7.05985 44.1738 7.30757 44.0926 7.59611 44.0166C7.62956 44.3469 7.50485 44.4888 7.25145 44.5484C6.97596 44.6131 6.69876 44.6744 6.42779 44.7539C6.31215 44.788 6.20898 44.8646 6.05593 44.9452C6.4533 45.3618 6.87449 45.019 7.32515 45.1104C7.26223 45.3925 7.21971 45.6814 7.12448 45.9522C7.09103 46.0475 6.93571 46.1242 6.82007 46.161C6.56951 46.2416 6.31045 46.2967 6.05252 46.3512C5.86149 46.3915 5.68293 46.4329 5.66252 46.7082C6.07803 46.9268 6.50375 46.6089 6.92721 46.7111C6.97255 46.9557 6.83481 47.0227 6.65567 47.063C6.39832 47.1209 6.13926 47.1754 5.88587 47.2486C5.76796 47.2827 5.66195 47.357 5.50833 47.4342C5.93632 47.8758 6.40285 47.3882 6.79116 47.5551C6.87109 47.8111 6.71463 47.8883 6.5474 47.9388C6.33086 48.0047 6.10241 48.0342 5.8904 48.1097C5.7073 48.175 5.53951 48.284 5.31276 48.4003C5.81557 48.8726 6.2617 48.2959 6.69309 48.4673C6.73164 48.7432 6.56894 48.7994 6.36714 48.8385C6.14606 48.8817 5.92668 48.9373 5.7124 49.006C5.63758 49.0298 5.57976 49.1081 5.48339 49.1865C5.86149 49.464 6.25603 49.1939 6.63583 49.3023C6.51452 49.8341 5.7878 49.4595 5.71807 50.0016C5.9845 50.2894 6.33086 49.8455 6.59842 50.0714C6.64547 50.3081 6.46804 50.3155 6.32972 50.3586C6.18347 50.404 6.04119 50.4506 6.04402 50.6873C6.26964 50.7208 6.48958 50.7531 6.80476 50.7997C6.58652 51.0063 6.44707 51.1385 6.24696 51.3275C6.48618 51.3826 6.65397 51.4212 6.83424 51.4632C6.89716 51.5977 6.94761 51.7419 7.02584 51.8679C7.22651 52.1898 7.49918 52.2448 7.78091 51.9854C7.97195 51.8095 8.12954 51.587 8.26615 51.3633C8.78654 50.5085 9.28935 49.6434 9.80294 48.784C10.8896 46.9665 12.0852 45.2211 13.3447 43.521C14.7608 41.6104 16.1768 39.6987 17.6445 37.8278C18.5991 36.6108 19.6234 35.4466 20.6562 34.2949C22.5598 32.1726 24.4486 30.0332 26.4275 27.9824C28.0652 26.2846 29.8259 24.7061 31.5277 23.0707C32.8111 21.8373 34.2016 20.7327 35.6613 19.7235C36.668 19.0276 37.7434 18.4299 38.7972 17.8038C40.8992 16.5556 43.1264 15.5747 45.4245 14.7556C47.3989 14.0518 49.3994 13.4297 51.4616 13.0289C52.9803 12.7338 54.4933 12.4028 56.0187 12.1474C57.246 11.9419 58.4857 11.8034 59.7243 11.6763C63.7979 11.2574 67.8731 10.8561 71.9478 10.4491C74.8802 10.1562 77.7797 9.64987 80.6764 9.11971C83.2081 8.65596 85.704 8.05428 88.0735 7.03597C89.1789 6.56087 90.2548 5.99381 91.2803 5.36432C91.8965 4.98628 92.4271 4.4425 92.9299 3.91064C93.4922 3.3152 93.4599 3.28398 94.4939 3.44859C93.9843 3.64556 93.5869 3.79882 93.1498 3.9674C93.4741 4.39993 93.8669 4.01792 94.2836 4.21205C93.558 4.50891 92.7723 4.3846 92.2083 4.97493C92.7145 5.37454 93.1827 4.8966 93.7246 5.02204C93.0693 5.38816 92.342 5.35467 91.7111 5.76393C92.2326 6.12323 92.6453 5.71171 93.1725 5.7679C92.6068 6.33723 91.8007 6.05568 91.2361 6.54952C91.405 6.60117 91.5173 6.64828 91.634 6.66758C91.7616 6.68858 91.8931 6.68291 92.0416 6.78167C91.6873 6.87193 91.333 6.96388 90.9782 7.05073C90.8682 7.0774 90.7531 7.08365 90.6443 7.1126C90.2718 7.21193 90.231 7.27607 90.2531 7.72279C89.7611 7.87605 89.2645 8.03101 88.7232 8.19959C88.8053 8.3625 88.8603 8.47035 88.9289 8.60544C88.8558 8.65256 88.7861 8.71954 88.7033 8.74849C87.1546 9.29 85.6224 9.8877 84.0504 10.3509C81.3329 11.1512 78.5388 11.6365 75.7713 12.2314C72.395 12.9568 69.025 13.7118 65.6606 14.4906C62.7928 15.1547 59.9313 15.8483 57.0782 16.5737C55.6894 16.9268 54.3255 17.3792 52.9525 17.7941C52.1215 18.045 51.295 18.3095 50.4657 18.5661C50.3761 18.5939 50.2792 18.6325 50.1907 18.6223C49.2588 18.5133 48.4096 18.8862 47.5304 19.0764C47.0514 19.1803 46.5803 19.3222 46.1104 19.4624C45.9245 19.5191 45.7521 19.6168 45.4868 19.7337ZM16.8293 27.0214C17.0436 27.0855 17.162 27.1502 17.2817 27.1525C18.5463 27.1781 19.7515 26.888 20.9221 26.4322C21.0258 26.3919 21.1239 26.3272 21.2129 26.2579C21.574 25.9787 21.54 25.6188 21.1024 25.5104C20.7277 25.4179 20.3138 25.3889 19.9323 25.4406C18.8797 25.583 17.9817 26.1143 17.1116 26.6893C17.0254 26.7461 16.9716 26.8505 16.8293 27.0214ZM37.2638 23.102C36.9237 22.9572 36.689 22.9867 36.4968 23.2626C36.9175 23.4874 36.956 23.4806 37.2638 23.102ZM6.61883 45.6553C6.23676 45.4782 6.17213 45.4924 5.93348 45.804C6.31102 45.9879 6.3643 45.9766 6.61883 45.6553ZM34.51 24.4041C34.1954 24.2446 34.0797 24.3082 34.0378 24.5165C34.0327 24.542 34.0712 24.5766 34.1188 24.6561C34.2248 24.588 34.3297 24.521 34.51 24.4041ZM90.2809 7.05073C90.4476 6.82879 90.5065 6.74932 90.566 6.67042C90.5105 6.63012 90.4379 6.54554 90.4022 6.55917C90.3104 6.59379 90.2015 6.65623 90.1641 6.7374C90.1386 6.79359 90.2203 6.89917 90.2809 7.05073ZM4.82185 46.971C4.92332 46.8649 4.99928 46.7945 5.05653 46.7116C5.06334 46.702 4.94259 46.572 4.92445 46.5817C4.83602 46.6276 4.75496 46.6957 4.6909 46.7724C4.67957 46.7866 4.75836 46.8763 4.82185 46.971Z" fill="#F3D228"/>
<path d="M46.1992 45.5844C45.9996 45.7848 45.579 45.6769 45.4957 46.0924C45.8409 46.3234 46.198 46.0481 46.5982 46.1475C46.2366 46.4852 45.7145 46.3473 45.38 46.6674C45.5881 47.0256 45.956 46.7367 46.219 46.9263C45.9724 47.2396 45.388 46.9274 45.2275 47.4961C45.4498 47.52 45.6385 47.5399 45.8273 47.5603C45.566 47.8151 42.8994 48.5252 42.1687 48.5179C42.3393 48.1046 42.5185 47.717 42.6591 47.3151C42.7974 46.9177 43.1415 46.597 43.1296 46.1276C42.8444 46.0124 42.7282 46.2338 42.5854 46.3558C41.9539 46.895 41.3456 47.4627 40.7017 47.9866C39.4035 49.0424 37.9915 49.9085 36.3929 50.4353C35.5925 50.6992 34.7716 50.8003 33.9372 50.6141C32.651 50.3269 31.8318 49.3455 31.8239 48.0263C31.8205 47.5013 31.9191 46.9751 31.977 46.45C31.9985 46.2542 32.0382 46.0601 32.0694 45.8654C32.0257 45.8455 31.9821 45.8256 31.939 45.8063C31.8222 45.9641 31.6986 46.1168 31.5904 46.2803C30.9311 47.2708 30.3098 48.2885 29.6086 49.2484C28.9079 50.2071 28.1534 51.1295 27.3762 52.0275C26.7674 52.7302 26.0124 53.2632 25.1785 53.6923C23.2971 54.6601 21.6894 53.5175 21.2773 51.8549C21.0233 50.8304 21.203 49.8671 21.6985 48.9504C22.4167 47.621 23.144 46.2968 23.8503 44.9611C24.3803 43.9593 24.8741 42.9381 25.3996 41.9334C25.8723 41.0298 26.3678 40.1381 26.8502 39.2389C26.9715 39.013 27.12 38.8444 27.3933 38.7905C28.6149 38.551 29.8342 38.2972 31.0552 38.0537C31.1975 38.0254 31.346 38.0265 31.4974 38.0134C31.4594 38.5442 31.3562 38.6872 30.9356 38.807C30.7179 38.8688 30.4935 38.9103 30.2803 38.9846C30.1715 39.0227 30.0814 39.1135 29.9992 39.2997C30.1879 39.332 30.3767 39.3638 30.5808 39.3984C30.1737 39.6709 29.5751 39.5012 29.2242 39.9768C29.6466 40.3095 30.0377 39.8361 30.5093 40.012C30.1755 40.1988 29.8631 40.2277 29.5712 40.3055C29.2696 40.3855 28.9414 40.4088 28.7838 40.7619C29.002 40.9997 29.2157 40.8555 29.426 40.8101C29.6222 40.7681 29.8206 40.738 30.1426 40.6801C29.7639 41.1496 29.1897 40.9429 28.9057 41.3039C29.0837 41.6428 29.4277 41.359 29.6743 41.6127C29.3461 41.6837 29.0553 41.7257 28.7787 41.812C28.5089 41.896 28.1676 41.8432 27.9613 42.1883C28.408 42.4534 28.8677 42.127 29.3694 42.299C28.824 42.7894 28.0571 42.5873 27.5486 43.0585C27.9545 43.3866 28.366 43.1135 28.8643 43.13C28.514 43.4433 28.1449 43.3911 27.853 43.5273C27.5775 43.6556 27.154 43.5546 27.0299 44.0995C27.5185 44.0376 27.9454 43.9837 28.4227 43.923C28.298 44.5388 28.0179 44.8817 27.4596 44.9719C27.1733 45.0185 26.8525 45.0071 26.6648 45.3307C26.9165 45.6582 27.285 45.3369 27.5911 45.5203C27.2317 45.9369 26.577 45.6781 26.2493 46.1458C26.5067 46.4216 26.8559 46.1702 27.1495 46.3552C26.7782 46.8161 26.056 46.5641 25.738 47.096C26.0554 47.4729 26.4058 47.0818 26.7601 47.1408C26.6195 47.4331 26.3542 47.3758 26.1609 47.4496C25.9659 47.5245 25.7584 47.5682 25.5566 47.6256C25.56 47.6761 25.5634 47.726 25.5668 47.7766C25.7918 47.8169 26.0169 47.8566 26.3542 47.9168C25.9455 48.0814 25.6218 48.2113 25.2924 48.3436C25.4268 48.7619 25.7624 48.4367 25.9511 48.6297C25.7595 48.96 25.1621 48.7086 25.0765 49.2439C25.2522 49.2626 25.4058 49.279 25.6087 49.3006C25.4194 49.3954 25.2771 49.4669 25.0895 49.5617C25.31 49.8109 25.1467 49.9857 24.95 50.1776C25.2369 50.3167 25.3559 50.5034 25.4086 50.7889C25.4897 51.2288 25.8191 51.4082 26.2601 51.306C26.4568 51.2606 26.6512 51.1664 26.823 51.0574C27.785 50.4438 28.472 49.5623 29.0786 48.624C30.5751 46.3081 32.0246 43.9616 33.5308 41.6519C34.5851 40.0359 35.7455 38.4908 37.1695 37.1773C38.4693 35.9785 39.9131 34.9823 41.6132 34.4261C42.3161 34.1962 43.0383 34.056 43.786 34.2325C44.7185 34.4527 45.3126 35.1895 45.2695 36.0847C45.0977 36.2998 44.6947 36.1601 44.5654 36.5915C44.829 36.6108 45.0524 36.6267 45.3432 36.6483C45.0632 36.9894 44.4759 36.7596 44.3761 37.2846C44.6102 37.5917 44.9458 37.2068 45.2236 37.3936C44.9923 37.6723 44.5212 37.4935 44.3693 37.8664C44.5365 38.1905 44.8761 37.8812 45.0881 38.0957C44.7758 38.3631 44.244 38.1815 44.0179 38.6072C44.2503 38.9148 44.5377 38.585 44.8086 38.7383C44.7616 38.807 44.7162 38.925 44.676 38.9233C44.3347 38.9086 44.0456 38.9517 43.8773 39.3156C43.837 39.403 43.6414 39.4087 43.5332 39.4768C43.4374 39.5369 43.3642 39.6323 43.1777 39.8111C43.5298 39.8111 43.7361 39.8111 43.943 39.8111C43.5275 40.4315 42.9487 40.6779 42.2685 40.6801C41.6653 40.6824 41.3326 40.4497 41.0582 39.8786C41.2096 39.7935 41.3638 39.7067 41.5174 39.6204C41.4579 39.2577 41.1342 39.4393 40.9216 39.2747C40.9137 38.3756 41.4046 37.6825 41.9783 37.0212C42.5752 36.3333 43.3308 35.9677 44.3262 35.9007C44.2406 35.7208 44.2089 35.5749 44.121 35.4835C43.8342 35.1855 43.4674 35.0987 43.0791 35.2179C42.4522 35.4109 41.8337 35.6328 41.1892 35.8508C41.1892 35.97 41.1892 36.0937 41.1892 36.2277C40.8247 36.3344 40.4545 36.4428 40.0186 36.5711C40.1456 36.7488 40.2142 36.8447 40.2958 36.9582C39.8723 37.1433 39.3559 37.0712 38.9489 37.4311C39.4154 37.8693 39.8701 37.2415 40.3332 37.5287C39.6473 37.8091 38.8882 37.8074 38.1955 38.27C38.8248 38.677 39.3423 38.0969 39.984 38.2768C39.5226 38.5044 39.1518 38.5884 38.7692 38.6446C38.4988 38.6844 38.4999 38.6917 38.3384 39.0056C38.7006 39.2452 39.0634 38.895 39.4874 39.017C39.3843 39.1044 39.323 39.1975 39.2448 39.2145C38.8769 39.2968 38.5039 39.3542 38.1343 39.4285C37.9263 39.4705 37.6774 39.4586 37.5975 39.7617C37.9189 39.9967 38.2766 39.6913 38.619 39.8775C38.1111 40.1749 37.4756 40.0654 36.9728 40.4292C37.229 40.8033 37.5085 40.616 37.7602 40.5734C38.0153 40.5303 38.2681 40.4729 38.5561 40.415C38.3939 40.6875 38.3928 40.6852 37.6564 40.8754C37.3163 40.9634 36.966 41.0309 36.6412 41.2869C36.8798 41.5673 37.1423 41.4407 37.3809 41.4118C37.6162 41.3834 37.8492 41.3386 38.1468 41.2909C37.9824 41.8665 37.7959 42.2837 37.1899 42.337C36.9297 42.3603 36.6763 42.4528 36.419 42.5073C36.2432 42.5448 36.0964 42.6038 36.0794 42.8479C36.4598 43.0585 36.8498 42.7718 37.2579 42.8831C36.8339 43.1385 36.2704 42.996 35.9093 43.424C36.2942 43.7884 36.6797 43.3434 37.0317 43.4672C37.0975 43.6891 36.9495 43.7532 36.8067 43.7964C36.5363 43.8787 36.2551 43.9275 35.9876 44.0189C35.8062 44.0808 35.6412 44.1903 35.4173 44.3044C35.8379 44.7738 36.2455 44.2573 36.6763 44.4315C36.2682 44.7977 35.7189 44.6314 35.3243 44.9322C35.5647 45.2784 35.9507 45.0253 36.2506 45.233C35.8708 45.4697 35.3243 45.2921 35.0488 45.7428C35.3651 46.0686 35.6945 45.6519 36.0936 45.8041C35.6843 45.9664 35.3521 46.0981 35.0103 46.2338C35.2064 46.639 35.5273 46.3552 35.7676 46.4773C35.8039 46.8059 35.6826 47.008 35.3566 47.1016C35.2421 47.1346 35.1458 47.2288 35.0409 47.2952C35.1248 47.4002 35.2087 47.5052 35.2994 47.6182C35.2495 47.6948 35.1826 47.7964 35.0999 47.9224C35.2932 48.0649 35.6497 47.9826 35.6089 48.3396C36.0148 48.4662 36.4161 48.6751 36.8282 48.6995C37.352 48.7302 37.8628 48.5559 38.3435 48.3016C39.5339 47.6721 40.6229 46.8905 41.6863 46.0743C42.4488 45.489 43.1845 44.8663 43.9135 44.2391C44.1063 44.0734 44.2735 43.8475 44.3795 43.6159C45.3398 41.5202 46.2865 39.4183 47.232 37.3164C48.6968 34.0594 50.1582 30.8012 51.6184 27.5431C52.2205 26.2001 52.2193 26.204 53.5991 25.6892C54.3587 25.4054 55.1104 25.1 55.8671 24.8083C56.0043 24.7555 56.1494 24.7225 56.3467 24.6641C56.3229 24.9502 56.2464 25.1244 55.9952 25.2101C55.8099 25.2737 55.6342 25.3657 55.391 25.4729C55.5474 25.62 55.6364 25.7034 55.7617 25.8203C55.7152 25.8487 55.6733 25.8901 55.6239 25.9021C55.459 25.9424 55.2855 25.9537 55.1279 26.0116C55.0027 26.057 54.8961 26.1535 54.7776 26.2302C54.9959 26.6071 55.3003 26.2563 55.5412 26.4231C55.1614 26.7126 54.5384 26.5333 54.306 27.0685C54.5945 27.3716 54.9069 27.0424 55.2192 27.1775C54.9664 27.3909 54.552 27.2167 54.4267 27.6322C54.5645 27.6958 54.7073 27.761 54.8649 27.8337C54.8388 27.878 54.8207 27.9518 54.7878 27.9591C54.5117 28.0199 54.2323 28.0641 53.9557 28.1209C53.7595 28.1618 53.5481 28.1873 53.45 28.4467C53.8207 28.7084 54.2249 28.4144 54.6325 28.5302C54.4602 28.919 54.1093 28.911 53.8236 28.9939C53.5458 29.0751 53.2391 29.0859 53.043 29.3918C53.4438 29.7051 53.8043 29.2834 54.2073 29.427C53.9908 29.7216 53.6711 29.6836 53.4149 29.7789C53.1428 29.88 52.869 29.9776 52.526 30.1019C52.9829 30.5696 53.4137 30.1212 53.8593 30.2591C53.7623 30.4913 53.6949 30.7263 53.569 30.9244C53.5005 31.0322 53.34 31.1032 53.2068 31.1435C52.9733 31.2144 52.7244 31.2349 52.4897 31.3047C52.3644 31.3416 52.2567 31.437 52.1065 31.5266C52.4455 31.8962 52.8293 31.517 53.149 31.7554C53.0396 32.0863 52.717 32.0233 52.4756 32.1079C52.2216 32.1964 51.9761 32.3088 51.7171 32.415C51.8803 32.7209 52.0742 32.6199 52.2516 32.5909C52.4121 32.5648 52.5714 32.5359 52.7312 32.5081C52.7885 32.7504 52.6677 32.8299 52.5113 32.8725C52.2567 32.9423 51.9994 33.0025 51.7437 33.0683C51.5413 33.1205 51.3469 33.1847 51.2823 33.4515C51.6133 33.7336 51.9722 33.3839 52.3231 33.5843C51.9484 33.7001 51.5742 33.8153 51.1995 33.9311C51.2012 33.9771 51.2024 34.023 51.2041 34.069C51.4234 34.1173 51.6423 34.1655 51.9393 34.2308C51.64 34.3642 51.394 34.4743 51.1479 34.5844C51.1542 34.6259 51.1604 34.6667 51.1666 34.7082C51.3237 34.7638 51.4807 34.8189 51.6831 34.8904C51.3662 35.026 51.0924 35.1435 50.8186 35.261C50.8231 35.3087 50.8277 35.3564 50.8322 35.4035C50.9989 35.4501 51.1655 35.4966 51.3713 35.5545C51.3713 35.6697 51.3713 35.8082 51.3713 36.0012C51.5 35.9643 51.6003 35.9643 51.6587 35.9144C52.1881 35.4586 52.7159 34.9999 53.234 34.5316C54.7606 33.1512 56.2849 31.7679 57.8047 30.38C58.0932 30.1167 58.418 29.9504 58.7979 29.8692C59.3454 29.7523 59.8902 29.6211 60.4826 29.5865C59.4361 30.4675 58.4027 31.3637 57.3404 32.2248C56.2787 33.0853 55.2561 33.9867 54.2249 34.8796C54.251 34.9244 54.2771 34.9687 54.3031 35.0135C54.5514 34.9522 54.7975 34.8745 55.0491 34.8347C55.3728 34.7837 55.7192 34.6463 55.9697 35.0272C56.0128 35.093 56.1715 35.0941 56.2787 35.1032C56.3949 35.1129 56.5134 35.0959 56.6466 35.1691C56.4062 35.2712 56.1659 35.374 55.8717 35.4989C56.277 35.882 56.6642 35.5301 57.0321 35.6379C56.9929 35.9779 56.7027 35.9087 56.5264 35.991C56.3393 36.0784 56.1409 36.1408 55.9187 36.2254C55.9516 36.4388 55.9845 36.6494 56.0219 36.8918C56.3586 36.8924 56.7163 36.9775 56.7458 36.4434C56.7492 36.3827 56.9691 36.3344 57.108 36.2714C57.1987 36.8668 57.1386 36.9645 56.6749 37.0462C56.3733 37.0996 56.0474 37.0882 55.7798 37.3737C56.1387 37.6609 56.5139 37.3556 56.8847 37.5162C56.4249 37.8494 55.8104 37.7234 55.4119 38.157C55.8309 38.5345 56.2458 38.0401 56.65 38.2655C56.4493 38.5476 56.1115 38.4743 55.8598 38.5896C55.6325 38.6934 55.281 38.6043 55.2175 39.0789C55.612 39.0528 55.9544 39.0295 56.3597 39.0022C56.0519 39.5647 55.285 39.1816 55.01 39.8111C55.3598 39.8111 55.6512 39.8111 55.942 39.8111C55.544 40.1539 54.9046 39.982 54.552 40.6114C54.9448 40.6114 55.2368 40.6114 55.5848 40.6114C55.3592 41.0553 54.7498 40.7925 54.5962 41.3278C54.8643 41.3278 55.0724 41.3278 55.281 41.3278C55.2929 41.3664 55.3054 41.4044 55.3173 41.443C55.0327 41.5724 54.7476 41.7013 54.4437 41.8392C54.6574 42.1809 54.9358 41.9703 55.2538 42.0583C54.9647 42.2076 54.7487 42.3183 54.4613 42.4664C54.6115 42.5561 54.6801 42.6322 54.7306 42.622C55.3337 42.4971 55.9567 42.7883 56.5616 42.4812C57.2599 42.127 57.7695 41.5883 58.2361 40.9872C59.2411 39.6919 59.8998 38.2042 60.5824 36.7306C61.5273 34.6911 62.4717 32.6511 63.4122 30.6088C63.6803 30.0258 63.9173 29.4281 64.2013 28.8537C64.2835 28.6874 64.4586 28.4995 64.627 28.4547C65.7012 28.1652 66.785 27.9114 67.8672 27.6509C67.9528 27.6305 68.0469 27.6481 68.209 27.6481C67.899 28.0863 67.3429 27.8751 67.0492 28.2288C67.1955 28.5432 67.4732 28.3678 67.7703 28.4002C67.302 28.7521 66.6864 28.5205 66.3304 28.9797C66.6518 29.347 67.0379 29.0126 67.4251 29.0893C66.8916 29.4287 66.2136 29.2618 65.7783 29.7744C66.2329 30.1615 66.6836 29.6609 67.1558 29.8084C66.9993 30.0673 66.7476 30.0332 66.5515 30.0996C66.3531 30.1672 66.0957 30.1093 65.9449 30.4544C66.2369 30.4879 66.4812 30.5163 66.806 30.5537C66.238 30.9602 65.4688 30.7076 64.9393 31.3075C65.4909 31.3075 65.9432 31.3075 66.5118 31.3075C65.9126 31.8377 65.1117 31.6129 64.5907 32.1346C65.1094 32.4978 65.5714 32.0733 66.0991 32.1408C65.7936 32.4808 65.3934 32.4195 65.0697 32.5438C64.7369 32.6715 64.3118 32.6017 64.0369 33.0575C64.6309 33.242 65.1338 32.9179 65.6496 32.9383C65.6258 33.4815 65.5107 33.649 65.0504 33.7784C64.7426 33.8647 64.4314 33.9419 64.1196 34.014C63.915 34.0611 63.7183 34.1071 63.6344 34.3835C64.1043 34.5946 64.5652 34.224 65.0419 34.4124C64.9064 34.7661 64.5646 34.707 64.3078 34.7825C64.0244 34.866 63.737 34.925 63.4785 35.1498C63.8628 35.5244 64.2307 35.0976 64.6032 35.2338C64.1236 35.5988 63.3821 35.353 63.0012 35.9666C63.4836 36.2708 63.8804 35.7742 64.3713 35.9865C63.8351 36.4144 63.1066 36.1664 62.5766 36.5944C62.936 36.8702 63.3084 36.6778 63.6916 36.7675C63.2727 37.0076 62.7722 36.9543 62.3555 37.2613C62.7671 37.5803 63.1384 37.3107 63.4972 37.4123C63.2132 37.4844 62.9292 37.5571 62.6446 37.628C62.5534 37.6507 62.4445 37.6479 62.3737 37.6984C62.2977 37.7535 62.2575 37.8579 62.2013 37.9408C62.2784 37.9805 62.3578 38.0577 62.4326 38.0537C62.6197 38.0435 62.8045 37.997 62.9904 37.9635C63.0993 37.9442 63.2081 37.922 63.3181 37.901C63.4059 38.48 63.0318 39.0976 62.5194 39.244C62.1639 39.3456 62.1617 39.3468 61.8635 39.6811C62.1469 39.7021 62.3669 39.718 62.6033 39.7356C62.389 39.8707 62.1894 39.9961 61.9899 40.1222C61.9956 40.1608 62.0012 40.1994 62.0069 40.2385C62.1849 40.2686 62.3635 40.2993 62.5794 40.3361C62.368 40.4707 62.1911 40.5831 62.012 40.6972C62.071 40.7817 62.0925 40.8379 62.1135 40.8379C62.953 40.8413 63.7755 40.8527 64.4592 40.1982C65.4042 39.2929 66.0918 38.2212 66.6484 37.0547C67.4948 35.282 68.332 33.5042 69.1665 31.7259C69.7844 30.409 70.3915 29.0864 71.0054 27.7678C71.4578 26.7966 71.4595 26.7983 72.4929 26.5418C73.2253 26.3601 73.956 26.1717 74.6895 25.9923C74.8669 25.9492 75.0494 25.9293 75.3096 25.885C75.0211 26.4668 74.2915 26.1257 73.9911 26.6984C74.3522 26.6984 74.63 26.6984 74.9826 26.6984C74.6254 27.3728 73.8097 26.9527 73.4509 27.4823C73.7649 27.8104 74.1617 27.4301 74.5274 27.6679C74.0597 28.1044 73.316 27.8553 72.9214 28.3905C73.2666 28.7124 73.6691 28.2912 74.0421 28.5432C73.6561 28.8713 73.1147 28.7197 72.7315 29.0126C72.8183 29.2499 73.0047 29.1988 73.1601 29.2056C73.3256 29.2124 73.4923 29.2073 73.7581 29.2073C73.333 29.6677 72.6442 29.4168 72.3421 29.943C72.6658 30.3392 73.0167 29.9118 73.3755 30.0088C73.1793 30.3431 72.8511 30.283 72.5875 30.3585C72.3069 30.4391 71.9957 30.4504 71.7707 30.732C72.1318 31.1492 72.5654 30.7399 72.9532 30.8574C72.7066 31.3478 72.0241 30.9096 71.7809 31.5102C72.0286 31.5386 72.231 31.5618 72.524 31.5953C71.9532 31.815 71.3705 31.8025 70.9164 32.2759C71.413 32.6074 71.8472 32.159 72.312 32.2623C72.1193 32.6267 71.5286 32.3281 71.4186 32.8617C71.591 32.8895 71.7423 32.9139 71.9203 32.9423C71.8857 32.9866 71.8642 33.0456 71.8285 33.0553C71.5927 33.1217 71.3506 33.1682 71.1165 33.2403C70.9844 33.2812 70.8631 33.3578 70.7146 33.4293C70.9566 33.8369 71.3132 33.4719 71.5655 33.662C71.146 33.9504 70.527 33.8357 70.1761 34.3341C70.5712 34.6576 70.981 34.1604 71.3416 34.455C71.2571 34.7331 71.019 34.7405 70.8053 34.7751C70.5791 34.8115 70.3586 34.8444 70.3104 35.1793C70.5077 35.1912 70.6783 35.2014 70.8495 35.2116C70.4312 35.4183 69.9323 35.378 69.5786 35.8156C69.9283 35.8321 70.2775 35.8485 70.6959 35.8684C70.4635 36.2793 70.1035 36.1005 69.8563 36.2203C69.5996 36.3446 69.2538 36.2663 69.0361 36.5632C69.417 36.9611 69.8365 36.5546 70.2951 36.6778C69.7288 37.112 68.9562 36.9446 68.429 37.4668C68.9584 37.758 69.4057 37.3266 69.8512 37.4748C69.8501 38.0044 69.7129 38.1968 69.2436 38.3086C69.0231 38.3608 68.798 38.3932 68.5775 38.4448C68.3592 38.4959 68.1444 38.5618 68.0401 38.8314C68.4534 39.0982 68.8564 38.6889 69.2685 38.8456C69.3269 39.0596 69.2067 39.1424 69.0242 39.1884C68.7317 39.2616 68.4375 39.3292 68.1495 39.4177C68.0594 39.4455 67.9885 39.5341 67.8417 39.6459C68.0197 39.7027 68.124 39.7731 68.2147 39.7583C68.6535 39.6862 69.0746 39.6391 69.4403 39.277C69.8637 38.8575 70.4283 38.585 70.8892 38.1979C71.5853 37.6121 72.1652 36.923 72.5915 36.1045C72.7899 35.7231 73.0212 35.3246 73.3369 35.0465C74.0535 34.4153 74.4775 33.5962 74.9361 32.7953C76.355 30.317 77.6247 27.7622 78.7914 25.1562C78.9183 24.8724 79.0742 24.6976 79.3724 24.6022C79.9109 24.4302 80.4364 24.2191 80.9681 24.0249C81.149 23.9591 81.3077 23.9313 81.4987 24.059C81.62 24.1402 81.8201 24.1186 81.984 24.1135C82.1455 24.1084 82.3054 24.0658 82.5367 24.0283C82.3218 24.5733 81.6694 24.2616 81.4795 24.7169C81.7113 24.9785 82.0299 24.7146 82.3043 24.8769C82.1835 25.3611 81.4522 25.058 81.3706 25.5853C81.5877 25.9373 81.9313 25.5643 82.1903 25.7142C82.1801 25.9594 81.9743 25.9497 81.8292 25.9974C81.6144 26.0684 81.3871 26.103 81.1768 26.1842C81.0906 26.2177 81.0367 26.3323 80.9676 26.4101C81.0673 26.4731 81.1637 26.5792 81.2686 26.5883C81.4335 26.6031 81.6036 26.5452 81.7725 26.5327C81.8547 26.5264 81.9392 26.5543 82.0395 26.6718C81.7567 26.7813 81.4738 26.8909 81.1269 27.0254C81.2816 27.1679 81.3927 27.27 81.5027 27.3711C81.1892 27.5981 80.6479 27.4363 80.4829 27.9813C80.9432 28.2219 81.3582 27.8626 81.8218 28.0051C81.5764 28.1271 81.3304 28.2486 81.09 28.3684C81.1677 28.7214 81.4987 28.4944 81.6728 28.6732C81.3474 28.9286 80.8723 28.8401 80.6082 29.2045C80.8933 29.549 81.2476 29.2153 81.5673 29.406C81.4035 29.4633 81.2397 29.5212 81.0753 29.5786C80.8803 29.6467 80.6756 29.6966 80.4948 29.7926C80.4183 29.8334 80.3928 29.9708 80.344 30.0639C80.4364 30.111 80.5339 30.2046 80.6201 30.1956C80.8434 30.1712 81.0611 30.0979 81.2822 30.0508C81.3502 30.0361 81.4228 30.0429 81.5225 30.0383C81.5123 30.682 80.7839 30.3273 80.636 30.7393C80.6881 31.0555 81.0192 30.8676 81.2 31.0453C80.827 31.215 80.3514 31.0941 80.0549 31.479C80.42 31.8082 80.8548 31.4211 81.2737 31.6754C80.8389 32.1641 80.1173 31.9824 79.7069 32.457C80.1535 32.8912 80.6065 32.281 81.0741 32.5205C80.6252 32.9622 79.9257 32.8424 79.4552 33.3135C79.9761 33.6405 80.4427 33.2431 80.9001 33.3209C81.0447 33.9112 80.9387 34.0929 80.3684 34.2336C80.1484 34.2881 79.924 34.3296 79.712 34.4051C79.6094 34.442 79.5306 34.5447 79.4076 34.644C79.8208 34.9732 80.2357 34.6446 80.6637 34.8052C80.4512 35.3694 79.7216 35.0561 79.4829 35.5301C79.7029 35.8945 80.0362 35.5494 80.3559 35.6805C80.0402 36.0228 79.4246 35.8468 79.2318 36.411C79.5005 36.411 79.725 36.411 79.9886 36.411C79.9308 36.797 79.6377 36.688 79.4625 36.7658C79.284 36.8453 79.0504 36.8356 78.9427 37.1086C79.1252 37.1779 79.2868 37.2392 79.4461 37.2994C79.229 37.54 79.03 37.7608 78.8305 37.9822C78.8458 38.0004 78.8616 38.018 78.877 38.0361C78.8254 38.0571 78.7749 38.0923 78.7211 38.0974C78.2336 38.1485 77.9422 38.4721 77.7784 38.8779C77.6746 39.1351 77.517 39.21 77.2914 39.2758C77.0607 39.3428 76.8164 39.3996 76.8062 39.7373C76.8033 39.8242 76.6384 39.9309 76.5273 39.9859C75.7784 40.3577 74.999 40.6364 74.1566 40.6932C72.9146 40.7772 72.1374 40.1454 71.9526 38.9148C71.9294 38.761 71.8852 38.6106 71.8223 38.3347C71.608 38.5669 71.4821 38.6969 71.3637 38.8325C70.5916 39.718 69.7611 40.5382 68.7816 41.1961C68.5724 41.3363 68.3678 41.3874 68.1008 41.3846C67.734 41.3811 67.3633 41.5032 66.9999 41.5963C66.9154 41.6178 66.857 41.7399 66.8259 41.9249C67.1065 41.9028 67.3871 41.8801 67.7912 41.8477C67.3599 42.1934 66.7964 41.9857 66.5328 42.4517C66.8582 42.7798 67.1841 42.3875 67.4919 42.4761C67.5271 42.9949 67.4387 43.1215 66.9942 43.2066C66.8015 43.2435 66.5685 43.2129 66.4716 43.5126C66.6127 43.5824 66.7499 43.6499 66.895 43.722C66.6881 43.8111 66.4914 43.8963 66.2216 44.0126C66.3922 44.1591 66.4948 44.2476 66.5668 44.3095C66.5135 44.4684 66.4245 44.6138 66.424 44.7596C66.4228 45.2217 66.3072 45.4096 65.8752 45.5327C65.6213 45.6048 65.3605 45.6536 65.1099 45.7354C64.9988 45.7717 64.9064 45.8637 64.7766 45.9488C65.1292 46.3172 65.4858 45.9233 65.8412 46.0368C65.475 46.3223 64.9603 46.1844 64.6644 46.5579C64.8889 46.9501 65.2726 46.4954 65.5498 46.7543C65.2777 46.8411 64.9121 46.8547 64.8475 47.0012C64.7307 47.2657 64.4751 47.2946 64.2812 47.4984C64.3855 47.558 64.4541 47.6074 64.5306 47.6375C64.6094 47.6681 64.6956 47.6801 64.7959 47.8112C64.4269 47.9355 64.0578 48.0592 63.6888 48.1835C63.6894 48.2335 63.6905 48.2829 63.6911 48.3328C63.8515 48.3805 64.0119 48.4276 64.216 48.4883C63.8657 48.6802 63.4139 48.6234 63.1276 49.027C63.3169 49.0957 63.4643 49.1485 63.6333 49.2098C63.5579 49.4085 63.3793 49.3897 63.2217 49.4215C62.7682 49.5129 62.7461 49.5526 62.8527 50.026C62.5392 50.1282 62.2558 50.2446 62.0732 50.5863C61.9667 50.7855 61.6481 50.878 61.4162 51.0024C60.694 51.3912 59.9344 51.6721 59.1045 51.6903C57.9226 51.7164 57.2106 50.9161 57.4113 49.7513C57.6312 48.473 58.1919 47.3514 59.0773 46.3972C60.1085 45.2858 61.4083 44.5513 62.6928 43.7941C62.8878 43.6789 63.0862 43.5659 63.2937 43.4768C63.9671 43.1879 64.1032 42.5556 64.3617 41.942C64.0329 41.8693 63.9184 42.0708 63.7914 42.2116C63.1486 42.9245 62.389 43.4796 61.5188 43.8696C61.0738 44.0688 60.6056 44.2312 60.1323 44.3453C59.2978 44.5462 58.3727 44.1557 58.3625 42.9977C58.3614 42.8564 58.3149 42.7156 58.2673 42.45C58.074 42.6208 57.9538 42.7162 57.8455 42.8235C57.1494 43.5131 56.4924 44.2482 55.7521 44.8862C54.8694 45.6468 53.7788 45.9817 52.6331 46.0964C52.3446 46.1253 52.0249 46.0618 51.7505 45.9579C51.2993 45.787 50.9779 45.451 50.9898 44.935C51.0006 44.448 50.9898 43.9337 51.1406 43.4825C51.4694 42.4999 51.9024 41.5526 52.2783 40.5853C52.4903 40.0404 52.687 39.4887 52.8622 38.9313C52.9285 38.7201 52.9438 38.4823 52.9307 38.2592C52.9058 37.8318 52.6569 37.6167 52.2465 37.7421C51.8384 37.8664 51.4342 38.0583 51.0828 38.3001C50.6185 38.6197 50.1928 39.0011 49.7806 39.3877C49.5715 39.5841 49.3986 39.7884 49.0862 39.8253C48.9814 39.8378 48.8912 39.974 48.745 40.0949C48.9026 40.1801 49.0069 40.2368 49.1253 40.301C48.9054 40.6393 48.3935 40.4151 48.1781 40.7704C48.4559 40.9412 48.4559 40.9412 48.9621 40.9424C48.8051 41.0315 48.7319 41.0911 48.6486 41.1161C48.4321 41.1808 48.2031 41.2103 47.9956 41.2943C47.876 41.3431 47.6951 41.4839 47.7053 41.5616C47.736 41.7938 47.9525 41.7325 48.1163 41.7177C48.241 41.7064 48.3646 41.6791 48.5415 41.6502C48.4627 41.9221 48.2688 41.8778 48.1288 41.9329C47.9893 41.9879 47.8629 42.0753 47.6192 42.2104C47.9009 42.3206 48.0455 42.3773 48.2048 42.4398C48.1668 42.488 48.1407 42.5561 48.1021 42.5641C47.8816 42.6106 47.6532 42.6254 47.4372 42.6861C47.2343 42.7434 47.0438 42.8445 46.8017 42.9455C47.1509 43.3338 47.5534 43.0062 47.9003 43.1964C47.5478 43.7464 46.7592 43.4439 46.4055 43.986C46.8063 44.3101 47.1946 43.8883 47.6237 44.0456C47.1192 44.4719 46.4095 44.2936 45.9373 44.7562C46.3505 45.1195 46.7706 44.7154 47.1436 44.8516C47.143 45.3647 47.0228 45.518 46.5818 45.5696C46.4509 45.585 46.3182 45.5867 46.1867 45.594C46.2638 45.5038 46.3398 45.4141 46.4412 45.2943C46.1413 45.1791 45.9265 45.1553 45.7615 45.4067C45.8562 45.6417 46.0393 45.5816 46.1992 45.5844ZM78.3855 28.2889C78.3356 28.2628 78.2851 28.2373 78.2353 28.2112C78.1196 28.3911 77.987 28.5619 77.8906 28.7515C77.5669 29.3901 77.2733 30.0446 76.9371 30.6769C76.3975 31.6918 75.8323 32.6925 75.2807 33.7006C75.173 33.8976 75.0461 34.0929 75.1838 34.3347C75.5948 35.0544 75.2564 35.6464 74.8204 36.1891C74.5892 36.4769 74.3103 36.7386 73.8806 36.7465C73.3046 36.7573 73.2678 36.8101 73.2406 37.3902C73.1975 38.3046 73.6532 38.6923 74.533 38.4993C75.4315 38.3024 76.0976 37.7711 76.5942 37.0263C77.1044 36.2618 77.3878 35.4046 77.5114 34.4936C77.6888 33.1852 77.8685 31.8774 78.0522 30.5696C78.1582 29.809 78.2738 29.049 78.3855 28.2889ZM63.2625 44.2476C63.0738 44.3078 62.9592 44.3203 62.8725 44.3759C62.2388 44.7812 61.5959 45.1751 60.9843 45.6122C60.2672 46.1242 59.7258 46.8042 59.3364 47.5926C59.2145 47.8396 59.1351 48.1273 59.1164 48.4021C59.083 48.8987 59.4843 49.2138 59.9679 49.09C60.1634 49.0401 60.3681 48.9493 60.52 48.8193C60.8329 48.5514 61.1458 48.271 61.4015 47.9502C62.2098 46.9353 62.6599 45.7218 63.2121 44.5661C63.241 44.5036 63.2353 44.4247 63.2625 44.2476ZM66.9387 41.0729C66.9443 41.1263 66.9494 41.1802 66.9551 41.2336C67.1694 41.2506 67.3865 41.2977 67.5974 41.2773C67.8717 41.2512 68.1444 41.1836 68.4097 41.1075C68.4738 41.0894 68.5645 40.935 68.5441 40.8992C68.4981 40.8186 68.3876 40.7182 68.3094 40.7233C67.8315 40.7556 67.3587 40.8283 66.9387 41.0729ZM67.3576 40.3691C67.7833 40.5558 68.2691 40.5212 68.6909 40.3208C68.8604 40.2402 69.0293 40.1488 68.9754 39.8213C68.4403 39.9717 67.8763 39.9252 67.3576 40.3691ZM65.1185 33.4429C64.6763 33.1915 64.5323 33.2335 64.3005 33.6524C64.6162 33.8187 64.8498 33.7006 65.1185 33.4429ZM37.2245 41.9766C37.2148 41.9158 37.2052 41.8551 37.1956 41.7938C36.983 41.6729 36.7545 41.6871 36.5482 41.833C36.479 41.8818 36.4768 42.026 36.3985 42.2683C36.7693 42.1372 36.9972 42.0572 37.2245 41.9766ZM54.0707 25.9673C54.5616 26.0848 54.6359 26.0559 54.8451 25.6966C54.4205 25.545 54.3808 25.5569 54.0707 25.9673ZM62.0982 39.0108C62.5811 39.1969 62.6344 39.1782 62.8436 38.782C62.4508 38.614 62.4508 38.614 62.0982 39.0108ZM52.2879 30.9698C52.8083 31.0402 52.8911 31.0027 53.0294 30.6616C52.5538 30.539 52.5209 30.5515 52.2879 30.9698ZM80.5566 33.7909C80.234 33.6251 80.0011 33.6297 79.8894 33.8284C79.8554 33.8885 79.8696 34.0259 79.916 34.0713C80.0651 34.2172 80.3548 34.1076 80.5617 33.8442C80.5696 33.8346 80.5589 33.8091 80.5566 33.7909ZM47.4684 40.4775C47.8085 40.6307 48.0381 40.5973 48.2195 40.3129C47.8272 40.0779 47.7881 40.0847 47.4684 40.4775ZM29.8314 38.8626C30.1233 38.8774 30.3727 38.8751 30.5592 38.6146C30.1749 38.3597 30.0128 38.4079 29.8314 38.8626ZM69.4629 37.8505C69.1228 37.741 68.8813 37.7705 68.6914 38.0407C69.0775 38.3035 69.1755 38.2836 69.4629 37.8505ZM26.7504 44.5752C27.1778 44.8499 27.2958 44.8209 27.4976 44.4264C27.2311 44.2868 27.022 44.3935 26.7504 44.5752ZM40.255 36.0097C39.971 36.0994 39.7641 36.1647 39.4925 36.2504C39.9381 36.5143 40.0021 36.4945 40.255 36.0097ZM72.0269 29.1517C72.1522 29.0348 72.248 28.9616 72.3154 28.8679C72.3279 28.8509 72.1964 28.688 72.1749 28.6965C72.0688 28.7413 71.9674 28.8111 71.8892 28.8957C71.8727 28.9139 71.9583 29.0274 72.0269 29.1517ZM63.1769 34.4698C62.792 34.2592 62.792 34.2592 62.7489 34.6798C62.9156 34.598 63.0465 34.5339 63.1769 34.4698ZM67.3111 38.6804C67.2091 38.7888 67.1297 38.8728 67.0503 38.9568C67.1116 39.0073 67.2051 39.1124 67.2278 39.0987C67.3224 39.042 67.4001 38.9534 67.4693 38.8649C67.4772 38.8552 67.3905 38.7712 67.3111 38.6804ZM55.1682 37.5048C54.7436 37.313 54.7436 37.313 54.6393 37.7569C54.8349 37.6643 54.9698 37.5996 55.1682 37.5048ZM78.9433 34.8206C78.9246 34.7803 78.9059 34.74 78.8872 34.6991C78.5555 34.6531 78.5555 34.6531 78.53 35.0334C78.6922 34.95 78.818 34.8853 78.9433 34.8206ZM33.7054 47.9037C33.9315 47.9644 34.0693 47.9361 34.1129 47.7294C34.1209 47.692 34.0755 47.6108 34.0432 47.6034C33.8459 47.5597 33.7473 47.6602 33.7054 47.9037ZM80.5844 24.6033C80.7828 24.7203 80.9024 24.6527 80.9528 24.4507C80.9619 24.4155 80.9092 24.3297 80.8757 24.3241C80.6688 24.2906 80.5685 24.3842 80.5844 24.6033ZM46.1362 43.7067C46.1209 43.6516 46.1051 43.5971 46.0898 43.5421C45.888 43.4337 45.7536 43.4785 45.6663 43.8509C45.8738 43.7873 46.0053 43.747 46.1362 43.7067ZM66.9659 42.8155C66.7148 42.7968 66.7148 42.7968 66.6059 43.0023C66.8599 43.0216 66.8599 43.0216 66.9659 42.8155ZM61.2513 40.3089C61.0001 40.2487 60.8641 40.3151 60.8034 40.5916C61.0642 40.6586 61.2025 40.5967 61.2513 40.3089ZM43.3756 40.1687C43.2736 40.0972 43.2089 40.0206 43.1709 40.0319C43.0785 40.0603 42.9981 40.129 42.913 40.1818C42.9669 40.2368 43.0281 40.3424 43.0729 40.3356C43.1624 40.322 43.2424 40.2476 43.3756 40.1687ZM65.1644 45.0043C65.301 45.1433 65.4387 45.1802 65.5759 45.0224C65.6043 44.9901 65.5827 44.8567 65.5459 44.8346C65.3696 44.7278 65.2409 44.784 65.1644 45.0043ZM50.1191 33.6745C50.4235 33.7682 50.5442 33.6768 50.5947 33.4111C50.3504 33.3181 50.2302 33.4106 50.1191 33.6745ZM35.5154 46.8229C35.5006 46.7685 35.4853 46.7145 35.4706 46.66C35.2761 46.5624 35.1548 46.6288 35.0556 46.9688C35.2608 46.9035 35.3884 46.8632 35.5154 46.8229ZM55.7447 43.0806C55.6489 43.0006 55.5837 42.9149 55.5537 42.9262C55.4658 42.958 55.3921 43.0284 55.3127 43.0834C55.353 43.134 55.4034 43.2322 55.4318 43.2259C55.5242 43.2061 55.6081 43.1482 55.7447 43.0806ZM35.5947 42.866C35.436 42.807 35.364 42.7542 35.3017 42.7639C35.2229 42.7758 35.1526 42.8388 35.0783 42.8802C35.1237 42.9438 35.1645 43.0556 35.2149 43.0596C35.2846 43.0653 35.3617 42.9915 35.5947 42.866ZM25.8049 45.6258C25.882 45.5373 25.9375 45.4953 25.9568 45.4402C25.9653 45.4164 25.8944 45.3312 25.8689 45.3346C25.8089 45.3437 25.7357 45.3778 25.7062 45.426C25.6904 45.4516 25.7533 45.5265 25.8049 45.6258ZM62.6792 38.4301C62.5789 38.3512 62.5233 38.2751 62.4836 38.2831C62.4071 38.2978 62.3402 38.3597 62.2694 38.4023C62.3113 38.4499 62.3538 38.5368 62.3958 38.5374C62.47 38.5374 62.5449 38.4846 62.6792 38.4301Z" fill="#F3D228"/>
<path d="M32.1999 32.743C32.022 32.8775 31.8984 32.9706 31.7232 33.1023C32.2532 33.4014 32.6926 32.9893 33.2436 33.1046C32.8723 33.2726 32.5803 33.4048 32.2413 33.5587C32.709 34.1041 33.2555 33.3827 33.6999 33.7897C33.3507 34.1632 32.7368 33.9197 32.4556 34.3817C32.6274 34.6127 32.8258 34.5094 33.0202 34.4663C33.2084 34.4243 33.4 34.3976 33.6131 34.4691C33.2203 34.6008 32.8275 34.7325 32.3825 34.8818C32.7135 35.3495 33.0474 34.9681 33.3564 35.0271C33.3632 35.0719 33.3932 35.1338 33.3751 35.1696C32.7997 36.2759 30.5951 37.0234 29.4898 36.5239C28.6009 36.122 28.3107 35.4375 28.75 34.5594C29.3531 33.3549 31.0311 32.5704 32.1999 32.743ZM32.6631 35.5783C32.349 35.3251 32.1552 35.341 31.9828 35.4721C31.925 35.5164 31.9318 35.6464 31.8842 35.8365C32.1705 35.7417 32.3632 35.6776 32.6631 35.5783Z" fill="#F3D228"/>
<path d="M16.8291 27.0213C16.9714 26.8504 17.0258 26.746 17.1114 26.6892C17.9815 26.1142 18.8795 25.5829 19.9321 25.4405C20.3142 25.3888 20.728 25.4178 21.1022 25.5103C21.5398 25.6181 21.5738 25.9786 21.2127 26.2578C21.1237 26.3265 21.0256 26.3912 20.9219 26.4321C19.7513 26.8879 18.5461 27.1779 17.2815 27.1524C17.1619 27.1501 17.0434 27.0854 16.8291 27.0213Z" fill="black"/>
<path d="M37.2636 23.1019C36.9552 23.4805 36.9172 23.4873 36.4966 23.2626C36.6893 22.9867 36.9234 22.9572 37.2636 23.1019Z" fill="black"/>
<path d="M6.61894 45.6553C6.36498 45.9766 6.31113 45.988 5.93359 45.8041C6.17168 45.4924 6.23687 45.4782 6.61894 45.6553Z" fill="black"/>
<path d="M34.5098 24.404C34.3289 24.5204 34.2246 24.588 34.1186 24.6561C34.071 24.5766 34.0325 24.542 34.0376 24.5164C34.0795 24.3087 34.1957 24.2445 34.5098 24.404Z" fill="black"/>
<path d="M4.82199 46.9711C4.7585 46.8768 4.6797 46.7866 4.69104 46.7724C4.7551 46.6958 4.83616 46.6277 4.92459 46.5817C4.94273 46.572 5.06347 46.702 5.05667 46.7117C4.99942 46.7945 4.92346 46.8644 4.82199 46.9711Z" fill="black"/>
<path d="M78.3856 28.289C78.2739 29.0496 78.1583 29.8091 78.0517 30.5703C77.8686 31.8781 77.6889 33.1859 77.5109 34.4942C77.3873 35.4053 77.1039 36.2624 76.5937 37.027C76.0971 37.7717 75.4311 38.303 74.5326 38.4999C73.6528 38.6929 73.197 38.3053 73.2401 37.3908C73.2673 36.8107 73.3047 36.7579 73.8801 36.7471C74.3098 36.7392 74.5887 36.4775 74.82 36.1897C75.2559 35.6471 75.5943 35.055 75.1833 34.3353C75.0456 34.0935 75.1726 33.8982 75.2803 33.7013C75.8318 32.6932 76.397 31.6919 76.9367 30.6775C77.2728 30.0458 77.5665 29.3913 77.8901 28.7522C77.9859 28.5626 78.1186 28.3912 78.2348 28.2118C78.2852 28.2368 78.3351 28.2629 78.3856 28.289Z" fill="black"/>
<path d="M63.2629 44.2478C63.2357 44.4243 63.2413 44.5038 63.2113 44.5662C62.6592 45.7219 62.2096 46.9355 61.4007 47.9504C61.1451 48.2711 60.8327 48.5515 60.5192 48.8194C60.3673 48.9489 60.1627 49.0402 59.9671 49.0902C59.4836 49.2139 59.0828 48.8989 59.1157 48.4022C59.1338 48.1275 59.2132 47.8397 59.3356 47.5928C59.725 46.8044 60.2664 46.1249 60.9835 45.6124C61.5952 45.1753 62.238 44.7814 62.8717 44.3761C62.9596 44.3205 63.0741 44.308 63.2629 44.2478Z" fill="black"/>
<path d="M66.939 41.0728C67.3596 40.8281 67.8318 40.7554 68.3096 40.7231C68.3873 40.718 68.4984 40.819 68.5443 40.8991C68.5647 40.9348 68.474 41.0892 68.41 41.1074C68.1441 41.1834 67.8714 41.251 67.5976 41.2771C67.3868 41.297 67.1697 41.2504 66.9554 41.2334C66.9497 41.18 66.9441 41.1261 66.939 41.0728Z" fill="black"/>
<path d="M67.3579 40.3689C67.8766 39.925 68.4406 39.9722 68.9758 39.8212C69.0296 40.1487 68.8607 40.2401 68.6912 40.3207C68.2694 40.5211 67.7836 40.5551 67.3579 40.3689Z" fill="black"/>
<path d="M65.1188 33.4431C64.8501 33.7002 64.616 33.8188 64.3008 33.6525C64.5326 33.2336 64.6772 33.1916 65.1188 33.4431Z" fill="black"/>
<path d="M37.2249 41.9766C36.9975 42.0572 36.7702 42.1373 36.3989 42.2684C36.4777 42.026 36.4794 41.8818 36.5486 41.833C36.7544 41.6871 36.9834 41.673 37.1959 41.7939C37.2056 41.8552 37.2152 41.9159 37.2249 41.9766Z" fill="black"/>
<path d="M54.0708 25.9671C54.3809 25.5567 54.4205 25.5448 54.8451 25.6964C54.6359 26.0557 54.5617 26.0846 54.0708 25.9671Z" fill="black"/>
<path d="M62.0981 39.0104C62.4507 38.6136 62.4507 38.6136 62.8436 38.7817C62.6344 39.1779 62.5805 39.1966 62.0981 39.0104Z" fill="black"/>
<path d="M52.2881 30.9698C52.5205 30.5514 52.5534 30.539 53.0296 30.6616C52.8913 31.0027 52.8091 31.0401 52.2881 30.9698Z" fill="black"/>
<path d="M80.5567 33.7908C80.5589 33.809 80.5703 33.8339 80.5624 33.8441C80.3554 34.1075 80.0652 34.2171 79.9167 34.0712C79.8696 34.0252 79.856 33.8879 79.89 33.8283C80.0011 33.6301 80.2341 33.625 80.5567 33.7908Z" fill="black"/>
<path d="M47.4688 40.4776C47.789 40.0848 47.8281 40.078 48.2199 40.3129C48.0385 40.5973 47.8089 40.6308 47.4688 40.4776Z" fill="black"/>
<path d="M29.8315 38.8624C30.0135 38.4077 30.1751 38.3595 30.5594 38.6143C30.3723 38.8749 30.1235 38.8771 29.8315 38.8624Z" fill="black"/>
<path d="M69.4629 37.8505C69.1755 38.2836 69.0774 38.3034 68.6914 38.0406C68.8813 37.7704 69.1228 37.7409 69.4629 37.8505Z" fill="black"/>
<path d="M26.7505 44.5751C27.0215 44.3935 27.2312 44.2868 27.4976 44.4264C27.2958 44.8209 27.1785 44.8504 26.7505 44.5751Z" fill="black"/>
<path d="M46.1994 45.5844C46.0395 45.5816 45.8564 45.6417 45.7578 45.409C45.9228 45.1575 46.1376 45.1814 46.4375 45.2966C46.336 45.4164 46.2595 45.5066 46.183 45.5963C46.1818 45.5969 46.1994 45.5844 46.1994 45.5844Z" fill="black"/>
<path d="M40.2551 36.0099C40.0023 36.4946 39.9377 36.5145 39.4927 36.2506C39.7642 36.1649 39.9711 36.0996 40.2551 36.0099Z" fill="black"/>
<path d="M72.027 29.1518C71.9584 29.0274 71.8728 28.9139 71.8893 28.8958C71.9675 28.8112 72.0689 28.7414 72.1749 28.6965C72.1959 28.6875 72.3274 28.8504 72.3155 28.868C72.2486 28.9616 72.1523 29.0348 72.027 29.1518Z" fill="black"/>
<path d="M63.177 34.4698C63.0466 34.5339 62.9157 34.5981 62.749 34.6798C62.7921 34.2592 62.7921 34.2592 63.177 34.4698Z" fill="black"/>
<path d="M67.3111 38.6807C67.3898 38.7715 67.4771 38.8555 67.4692 38.8651C67.4 38.9537 67.3218 39.0422 67.2277 39.099C67.205 39.1126 67.1115 39.0076 67.0503 38.9571C67.1297 38.8731 67.209 38.7891 67.3111 38.6807Z" fill="black"/>
<path d="M55.1686 37.5048C54.9696 37.5996 54.8347 37.6637 54.6396 37.7568C54.744 37.3135 54.744 37.3135 55.1686 37.5048Z" fill="black"/>
<path d="M78.9435 34.8208C78.8177 34.8855 78.6924 34.9502 78.5303 35.0336C78.5552 34.6539 78.5552 34.6539 78.8874 34.6993C78.9061 34.7396 78.9248 34.7805 78.9435 34.8208Z" fill="black"/>
<path d="M33.7056 47.9035C33.7469 47.66 33.8456 47.5595 34.0434 47.6032C34.0757 47.6106 34.1211 47.6918 34.1131 47.7292C34.0701 47.9359 33.9323 47.9642 33.7056 47.9035Z" fill="black"/>
<path d="M80.5846 24.6034C80.5688 24.3843 80.6691 24.2906 80.8766 24.3241C80.91 24.3298 80.9622 24.4149 80.9537 24.4507C80.9026 24.6528 80.7836 24.7203 80.5846 24.6034Z" fill="black"/>
<path d="M46.1365 43.7068C46.005 43.7471 45.8741 43.7874 45.666 43.851C45.7533 43.4792 45.8877 43.4338 46.0895 43.5422C46.1053 43.5973 46.1212 43.6518 46.1365 43.7068Z" fill="black"/>
<path d="M66.9659 42.8152C66.8599 43.0213 66.8599 43.0213 66.606 43.002C66.7148 42.7971 66.7148 42.7971 66.9659 42.8152Z" fill="black"/>
<path d="M61.2515 40.3089C61.2034 40.5967 61.0645 40.6586 60.8037 40.5916C60.8644 40.3151 60.9998 40.2487 61.2515 40.3089Z" fill="black"/>
<path d="M43.3756 40.1683C43.2424 40.2472 43.1619 40.3216 43.0729 40.3352C43.0282 40.342 42.9669 40.2364 42.9131 40.1814C42.9981 40.1286 43.0786 40.0593 43.171 40.0315C43.209 40.0202 43.2736 40.0968 43.3756 40.1683Z" fill="black"/>
<path d="M65.1646 45.0042C65.2411 44.784 65.3703 44.7278 65.5461 44.8345C65.5835 44.8572 65.6045 44.99 65.5761 45.0224C65.4389 45.1802 65.3012 45.1433 65.1646 45.0042Z" fill="black"/>
<path d="M50.1191 33.6746C50.2297 33.4107 50.3504 33.3187 50.5947 33.4112C50.5449 33.6769 50.4235 33.7683 50.1191 33.6746Z" fill="black"/>
<path d="M35.5154 46.8231C35.3884 46.8634 35.2609 46.9037 35.0557 46.969C35.1549 46.629 35.2762 46.5631 35.4706 46.6602C35.4854 46.7147 35.5007 46.7686 35.5154 46.8231Z" fill="black"/>
<path d="M55.745 43.0807C55.6078 43.1482 55.5239 43.2061 55.4315 43.226C55.4032 43.2322 55.3527 43.1341 55.3125 43.0835C55.3919 43.0285 55.4656 42.9575 55.5534 42.9263C55.5846 42.915 55.6498 43.0007 55.745 43.0807Z" fill="black"/>
<path d="M35.5951 42.866C35.3621 42.9908 35.285 43.0652 35.2147 43.059C35.1649 43.055 35.1235 42.9432 35.0781 42.8796C35.1524 42.8387 35.2232 42.7751 35.3015 42.7632C35.3644 42.7541 35.4364 42.8075 35.5951 42.866Z" fill="black"/>
<path d="M25.8052 45.6257C25.7536 45.5263 25.6907 45.4514 25.7066 45.4259C25.7366 45.3782 25.8098 45.3436 25.8693 45.3345C25.8948 45.3305 25.9656 45.4162 25.9571 45.4401C25.9379 45.4951 25.8823 45.5371 25.8052 45.6257Z" fill="black"/>
<path d="M62.6794 38.4302C62.545 38.4853 62.4702 38.5381 62.3959 38.5375C62.3534 38.5375 62.3115 38.4506 62.2695 38.4024C62.3404 38.3598 62.4078 38.2979 62.4838 38.2832C62.5235 38.2752 62.579 38.3507 62.6794 38.4302Z" fill="black"/>
<path d="M32.6632 35.5782C32.3633 35.6775 32.1705 35.7416 31.8843 35.8364C31.9319 35.6463 31.9245 35.5163 31.9829 35.472C32.1547 35.3415 32.3485 35.3256 32.6632 35.5782Z" fill="black"/>
</svg>
